<svg width="24" height="24" viewBox="0 0 24 24" fill="none" xmlns="http://www.w3.org/2000/svg">
<path d="M13.8369 9.78809C14.3892 9.78809 14.8369 10.2358 14.8369 10.7881V18.75L14.832 18.8525C14.7841 19.323 14.41 19.6974 13.9395 19.7451L13.8369 19.75H9L8.89746 19.7451C8.42704 19.6972 8.0528 19.323 8.00488 18.8525L8 18.75V10.7881C8.00002 10.2358 8.44773 9.78809 9 9.78809H13.8369ZM10 17.75H12.8369V11.7881H10V17.75ZM13.3574 7.32715C13.594 7.32723 13.7861 7.52651 13.7861 7.77148V9.10254H9.07129V7.77148C9.07129 7.52651 9.26339 7.32724 9.5 7.32715H13.3574ZM16.5713 7.10547C16.8078 7.10547 16.9997 7.30402 17 7.54883C17 7.79386 16.808 7.99316 16.5713 7.99316C16.3347 7.99308 16.1426 7.79381 16.1426 7.54883C16.1428 7.30407 16.3348 7.10555 16.5713 7.10547ZM15.2852 6.21875C15.5218 6.21875 15.7139 6.41708 15.7139 6.66211C15.7138 6.90705 15.5218 7.10547 15.2852 7.10547C15.0486 7.10537 14.8565 6.90699 14.8564 6.66211C14.8564 6.41714 15.0485 6.21885 15.2852 6.21875ZM12.2861 4.8877C12.5228 4.88775 12.7148 5.08606 12.7148 5.33105V6.66211H10.1436V5.33105C10.1436 5.08619 10.3348 4.88796 10.5713 4.8877H12.2861ZM16.5713 5.55273C16.8079 5.55273 16.9998 5.75125 17 5.99609C17 6.24112 16.808 6.44043 16.5713 6.44043C16.3347 6.44035 16.1426 6.24107 16.1426 5.99609C16.1428 5.7513 16.3348 5.55281 16.5713 5.55273ZM14 5.33105C14.2367 5.33105 14.4286 5.52944 14.4287 5.77441C14.4287 6.01944 14.2367 6.21777 14 6.21777C13.7634 6.21769 13.5713 6.01939 13.5713 5.77441C13.5714 5.52949 13.7634 5.33114 14 5.33105ZM15.2852 4.66504C15.5218 4.66504 15.7139 4.86435 15.7139 5.10938C15.7137 5.35428 15.5218 5.55273 15.2852 5.55273C15.0486 5.55264 14.8566 5.35422 14.8564 5.10938C14.8564 4.86441 15.0485 4.66513 15.2852 4.66504ZM16.5713 4C16.8079 4 16.9998 4.19847 17 4.44336C17 4.68839 16.808 4.8877 16.5713 4.8877C16.3347 4.88762 16.1426 4.68834 16.1426 4.44336C16.1427 4.19852 16.3348 4.00008 16.5713 4Z" fill="currentColor"/>
</svg>
