<svg width="24" height="24" viewBox="0 0 24 24" fill="none" xmlns="http://www.w3.org/2000/svg">
<path fill-rule="evenodd" clip-rule="evenodd" d="M7.60002 4.93356C8.76692 3.76667 10.3496 3.11111 11.9998 3.11111C13.65 3.11111 15.2327 3.76667 16.3996 4.93356C17.5665 6.10045 18.222 7.6831 18.222 9.33334C18.222 12.3135 18.8594 14.1641 19.4468 15.241C19.7417 15.7817 20.0289 16.1364 20.2284 16.347C20.3284 16.4525 20.407 16.5225 20.4543 16.5619C20.4779 16.5817 20.4938 16.5938 20.5006 16.5988C20.5017 16.5996 20.5026 16.6003 20.5032 16.6007C20.8218 16.8196 20.9629 17.22 20.8505 17.5909C20.737 17.9658 20.3915 18.2222 19.9998 18.2222H3.9998C3.60809 18.2222 3.26256 17.9658 3.14905 17.5909C3.03674 17.22 3.17776 16.8196 3.49642 16.6007C3.49704 16.6003 3.49789 16.5996 3.49895 16.5988C3.50579 16.5938 3.52166 16.5817 3.54533 16.5619C3.59263 16.5225 3.6712 16.4525 3.77117 16.347C3.97067 16.1364 4.25785 15.7817 4.55278 15.241C5.14018 14.1641 5.77758 12.3135 5.77758 9.33334C5.77758 7.6831 6.43313 6.10045 7.60002 4.93356ZM18.0893 16.4444C18.0217 16.3336 17.9538 16.2163 17.8861 16.0923C17.1402 14.7248 16.4442 12.5754 16.4442 9.33334C16.4442 8.1546 15.976 7.02413 15.1425 6.19064C14.309 5.35714 13.1785 4.88889 11.9998 4.88889C10.8211 4.88889 9.6906 5.35714 8.8571 6.19064C8.02361 7.02414 7.55535 8.1546 7.55535 9.33334C7.55535 12.5754 6.85941 14.7248 6.11348 16.0923C6.04584 16.2163 5.97794 16.3336 5.91031 16.4444H18.0893Z" fill="currentColor"/>
<path fill-rule="evenodd" clip-rule="evenodd" d="M9.76792 19.135C10.2457 18.8579 10.8576 19.0205 11.1347 19.4982C11.2226 19.6498 11.3488 19.7756 11.5006 19.863C11.6524 19.9504 11.8245 19.9965 11.9997 19.9965C12.1749 19.9965 12.347 19.9504 12.4988 19.863C12.6506 19.7756 12.7768 19.6498 12.8647 19.4982C13.1418 19.0205 13.7537 18.8579 14.2315 19.135C14.7092 19.4121 14.8718 20.0241 14.5947 20.5018C14.331 20.9564 13.9525 21.3338 13.497 21.5961C13.0416 21.8584 12.5253 21.9965 11.9997 21.9965C11.4741 21.9965 10.9578 21.8584 10.5024 21.5961C10.0469 21.3338 9.66841 20.9564 9.4047 20.5018C9.12758 20.0241 9.2902 19.4121 9.76792 19.135Z" fill="currentColor"/>
</svg>
