<svg width="24" height="24" viewBox="0 0 24 24" fill="none" xmlns="http://www.w3.org/2000/svg">
<path d="M17.3333 9.33333C17.3333 7.91885 16.7714 6.56229 15.7712 5.5621C14.771 4.5619 13.4145 4 12 4C10.5855 4 9.22896 4.5619 8.22876 5.5621C7.22857 6.56229 6.66667 7.91885 6.66667 9.33333C6.66667 15.5556 4 17.3333 4 17.3333H20C20 17.3333 17.3333 15.5556 17.3333 9.33333Z" fill="currentColor"/>
<path fill-rule="evenodd" clip-rule="evenodd" d="M7.60002 4.93353C8.76692 3.76664 10.3496 3.11108 11.9998 3.11108C13.65 3.11108 15.2327 3.76664 16.3996 4.93353C17.5665 6.10042 18.222 7.68307 18.222 9.33331C18.222 12.3134 18.8594 14.1641 19.4468 15.241C19.7417 15.7817 20.0289 16.1364 20.2284 16.347C20.3284 16.4525 20.407 16.5225 20.4543 16.5619C20.4779 16.5816 20.4938 16.5937 20.5006 16.5988C20.5017 16.5996 20.5026 16.6002 20.5032 16.6007C20.8218 16.8196 20.9629 17.22 20.8505 17.5909C20.737 17.9658 20.3915 18.2222 19.9998 18.2222H3.9998C3.60809 18.2222 3.26256 17.9658 3.14905 17.5909C3.03674 17.22 3.17776 16.8196 3.49642 16.6007C3.49704 16.6002 3.49789 16.5996 3.49895 16.5988C3.50579 16.5937 3.52166 16.5816 3.54533 16.5619C3.59263 16.5225 3.6712 16.4525 3.77117 16.347C3.97067 16.1364 4.25785 15.7817 4.55278 15.241C5.14018 14.1641 5.77758 12.3134 5.77758 9.33331C5.77758 7.68307 6.43313 6.10042 7.60002 4.93353ZM18.0893 16.4444C18.0217 16.3336 17.9538 16.2163 17.8861 16.0923C17.1402 14.7247 16.4442 12.5754 16.4442 9.33331C16.4442 8.15457 15.976 7.0241 15.1425 6.19061C14.309 5.35711 13.1785 4.88886 11.9998 4.88886C10.8211 4.88886 9.6906 5.35711 8.8571 6.19061C8.02361 7.0241 7.55535 8.15457 7.55535 9.33331C7.55535 12.5754 6.85941 14.7247 6.11348 16.0923C6.04584 16.2163 5.97794 16.3336 5.91031 16.4444H18.0893Z" fill="currentColor"/>
<path fill-rule="evenodd" clip-rule="evenodd" d="M9.76792 19.135C10.2457 18.8579 10.8576 19.0205 11.1347 19.4982C11.2226 19.6497 11.3488 19.7755 11.5006 19.863C11.6524 19.9504 11.8245 19.9964 11.9997 19.9964C12.1749 19.9964 12.347 19.9504 12.4988 19.863C12.6506 19.7755 12.7768 19.6497 12.8647 19.4982C13.1418 19.0205 13.7537 18.8579 14.2315 19.135C14.7092 19.4121 14.8718 20.024 14.5947 20.5018C14.331 20.9564 13.9525 21.3337 13.497 21.596C13.0416 21.8584 12.5253 21.9964 11.9997 21.9964C11.4741 21.9964 10.9578 21.8584 10.5024 21.596C10.0469 21.3337 9.66841 20.9564 9.4047 20.5018C9.12758 20.024 9.2902 19.4121 9.76792 19.135Z" fill="currentColor"/>
</svg>
