<svg width="24" height="24" viewBox="0 0 24 24" fill="none" xmlns="http://www.w3.org/2000/svg">
<path d="M15.0518 5.61499C15.052 4.96144 15.6967 4.50386 16.2773 4.80347C19.2052 6.31676 21.2069 9.37317 21.207 12.8962C21.207 17.924 17.1313 21.9998 12.1035 21.9998C7.07578 21.9997 3 17.924 3 12.8962C3.00011 9.75733 4.58866 6.98887 7.00586 5.35229C7.45772 5.04654 8.05112 5.40765 8.2041 5.9314C8.31785 6.32197 8.18054 6.74618 7.85059 6.98413C6.01572 8.30643 4.82042 10.4618 4.82031 12.8962C4.82031 16.9184 8.08133 20.1794 12.1035 20.1794C16.1257 20.1794 19.3867 16.9184 19.3867 12.8962C19.3866 10.1444 17.8597 7.74897 15.6074 6.5105C15.2771 6.32883 15.0519 5.99191 15.0518 5.61499ZM14.5186 15.7322C14.9449 15.4662 15.5117 15.4281 15.8936 15.7546C16.2924 16.0959 16.3432 16.7037 15.9336 17.032C13.8418 18.7081 10.4903 18.7628 8.46191 17.0232C8.07839 16.6942 8.13844 16.1122 8.52246 15.7839C8.91692 15.4471 9.50775 15.5068 9.94434 15.7869C11.2596 16.6304 13.1701 16.5731 14.5186 15.7322ZM8.99609 9.31519C9.76012 9.31525 10.3797 9.93498 10.3799 10.699C10.3799 11.4631 9.76023 12.0827 8.99609 12.0828C8.2319 12.0828 7.6123 11.4632 7.6123 10.699C7.61249 9.93494 8.23201 9.31519 8.99609 9.31519ZM15.4531 9.31519C16.2172 9.31519 16.8367 9.93494 16.8369 10.699C16.8369 11.4632 16.2173 12.0828 15.4531 12.0828C14.689 12.0827 14.0693 11.4631 14.0693 10.699C14.0695 9.93496 14.6891 9.31522 15.4531 9.31519ZM11.9873 2.01147C12.4891 1.92435 12.9061 2.34881 12.9062 2.85815C12.9062 3.36762 12.4799 3.74851 11.9951 3.90503C11.5301 4.0552 11.3018 4.32096 11.3018 4.58569C11.3018 4.9634 11.7665 5.34304 12.7207 5.38647L12.9062 5.39038C13.4155 5.39059 13.8281 5.8039 13.8281 6.31323V7.39038C13.8279 7.8998 13.4147 8.31226 12.9053 8.31226C12.396 8.31207 11.9837 7.89967 11.9834 7.39038L11.9824 7.15112L11.9531 7.14624C10.5173 6.86577 9.53796 5.9477 9.46191 4.73804L9.45703 4.58569C9.45703 3.31918 10.3751 2.29154 11.9873 2.01147Z" fill="currentColor"/>
</svg>
