<svg width="24" height="24" viewBox="0 0 24 24" fill="none" xmlns="http://www.w3.org/2000/svg">
<path d="M20.665 5.89453C20.8759 6.21129 21 6.59086 21 7V20C21 21.1045 20.1045 21.9999 19 22H17.9131C17.7071 22.5823 17.1529 22.9999 16.5 23C15.8471 23 15.293 22.5823 15.0869 22H7.91309C7.70706 22.5823 7.15288 22.9999 6.5 23C5.84709 23 5.29298 22.5823 5.08691 22H5C4.86314 22 4.72971 21.9852 4.60059 21.959L6.56055 20H19V7.56055L20.665 5.89453ZM15 1C16.1045 1.00008 17 1.89548 17 3V5H17.1982L19.8984 2.2998L21.0186 3.41992L1.91699 22.5225L1.92676 22.5322L1.92578 22.5352L0.793945 21.4043L3 19.1982V7C3 5.89543 3.89543 5 5 5H7V3C7 1.89543 7.89543 1 9 1H15ZM5 17.1982L7.75 14.4482V9.83301H9.25V12.9482L11.25 10.9482V9.83301H12.3652L15.1982 7H5V17.1982ZM12.75 17.166H11.25V15.3105L12.75 13.8105V17.166ZM16.25 17.166H14.75V11.8105L16.25 10.3105V17.166ZM9 5H15V3H9V5Z" fill="currentColor"/>
</svg>
