<svg width="24" height="24" viewBox="0 0 24 24" fill="none" xmlns="http://www.w3.org/2000/svg">
<path fill-rule="evenodd" clip-rule="evenodd" d="M17.4 3.7303H18.3C19.02 3.7303 19.7 4.0103 20.21 4.5203C20.72 5.0303 21 5.7103 21 6.4303V13.0303C21 13.5274 20.5971 13.9303 20.1 13.9303C19.6029 13.9303 19.2 13.5274 19.2 13.0303V10.9303H4.8V19.0303C4.8 19.2703 4.89 19.5003 5.06 19.6703C5.23 19.8403 5.46 19.9303 5.7 19.9303H12.1C12.5971 19.9303 13 20.3332 13 20.8303C13 21.3274 12.5971 21.7303 12.1 21.7303H5.7C4.98 21.7303 4.3 21.4503 3.79 20.9403C3.28 20.4303 3 19.7503 3 19.0303V6.4303C3 5.7103 3.28 5.0303 3.79 4.5203C4.3 4.0103 4.98 3.7303 5.7 3.7303H6.6V2.8303C6.6 2.5903 6.69 2.3603 6.86 2.1903C7.03 2.0203 7.26 1.9303 7.5 1.9303C7.74 1.9303 7.97 2.0203 8.14 2.1903C8.31 2.3603 8.4 2.5903 8.4 2.8303V3.7303H15.6V2.8303C15.6 2.5903 15.69 2.3603 15.86 2.1903C16.03 2.0203 16.26 1.9303 16.5 1.9303C16.74 1.9303 16.97 2.0203 17.14 2.1903C17.31 2.3603 17.4 2.5903 17.4 2.8303V3.7303ZM4.8 9.1303H19.2V6.4303C19.2 6.1903 19.11 5.9603 18.94 5.7903C18.77 5.6203 18.54 5.5303 18.3 5.5303H17.4V6.4303C17.4 6.6703 17.31 6.9003 17.14 7.0703C16.97 7.2403 16.74 7.3303 16.5 7.3303C16.26 7.3303 16.03 7.2403 15.86 7.0703C15.69 6.9003 15.6 6.6703 15.6 6.4303V5.5303H8.4V6.4303C8.4 6.6703 8.31 6.9003 8.14 7.0703C7.97 7.2403 7.74 7.3303 7.5 7.3303C7.26 7.3303 7.03 7.2403 6.86 7.0703C6.69 6.9003 6.6 6.6703 6.6 6.4303V5.5303H5.7C5.46 5.5303 5.23 5.6203 5.06 5.7903C4.89 5.9603 4.8 6.1903 4.8 6.4303V9.1303Z" fill="currentColor"/>
<path fill-rule="evenodd" clip-rule="evenodd" d="M17.2191 13.1375C16.9498 12.8607 16.5155 12.8613 16.247 13.1389C15.9764 13.4187 15.9771 13.8732 16.2484 14.1522L18.7437 16.7173L12.6881 16.7113C12.3084 16.711 12.0004 17.0297 12 17.4233C11.9996 17.8169 12.3071 18.1363 12.6868 18.1366L18.7341 18.1426L16.2466 20.7093C15.9758 20.9888 15.976 21.4433 16.247 21.7226C16.516 21.9997 16.9503 21.9995 17.2191 21.7222L20.7286 18.1003C21.0909 17.7264 21.0904 17.1182 20.7274 16.7449L17.2191 13.1375Z" fill="currentColor"/>
</svg>
