<svg width="24" height="24" viewBox="0 0 24 24" fill="none" xmlns="http://www.w3.org/2000/svg">
<g clip-path="url(#clip0_1_2355)">
<path d="M12 18.2C12.18 18.2 12.35 18.15 12.5 18.05C12.65 17.95 12.76 17.81 12.83 17.65C12.9 17.49 12.92 17.3 12.88 17.13C12.85 16.96 12.76 16.8 12.63 16.67C12.5 16.54 12.34 16.46 12.17 16.42C12 16.39 11.81 16.4 11.65 16.47C11.49 16.54 11.34 16.65 11.25 16.8C11.15 16.95 11.1 17.12 11.1 17.3C11.1 17.54 11.19 17.77 11.36 17.94C11.53 18.11 11.76 18.2 12 18.2ZM16.5 18.2C16.68 18.2 16.85 18.15 17 18.05C17.15 17.95 17.26 17.81 17.33 17.65C17.4 17.49 17.42 17.3 17.38 17.13C17.35 16.96 17.26 16.8 17.13 16.67C17 16.54 16.84 16.46 16.67 16.42C16.5 16.39 16.31 16.4 16.15 16.47C15.99 16.54 15.84 16.65 15.75 16.8C15.66 16.95 15.6 17.12 15.6 17.3C15.6 17.54 15.69 17.77 15.86 17.94C16.03 18.11 16.26 18.2 16.5 18.2ZM16.5 14.6C16.68 14.6 16.85 14.55 17 14.45C17.15 14.35 17.26 14.21 17.33 14.05C17.4 13.89 17.42 13.7 17.38 13.53C17.35 13.36 17.26 13.2 17.13 13.07C17 12.94 16.84 12.86 16.67 12.82C16.5 12.79 16.31 12.8 16.15 12.87C15.99 12.94 15.84 13.05 15.75 13.2C15.66 13.35 15.6 13.52 15.6 13.7C15.6 13.94 15.69 14.17 15.86 14.34C16.03 14.51 16.26 14.6 16.5 14.6ZM12 14.6C12.18 14.6 12.35 14.55 12.5 14.45C12.65 14.35 12.76 14.21 12.83 14.05C12.9 13.89 12.92 13.7 12.88 13.53C12.85 13.36 12.76 13.2 12.63 13.07C12.5 12.94 12.34 12.86 12.17 12.82C12 12.79 11.81 12.8 11.65 12.87C11.49 12.94 11.34 13.05 11.25 13.2C11.15 13.35 11.1 13.52 11.1 13.7C11.1 13.94 11.19 14.17 11.36 14.34C11.53 14.51 11.76 14.6 12 14.6ZM18.3 3.8H17.4V2.9C17.4 2.66 17.31 2.43 17.14 2.26C16.97 2.09 16.74 2 16.5 2C16.26 2 16.03 2.09 15.86 2.26C15.69 2.43 15.6 2.66 15.6 2.9V3.8H8.4V2.9C8.4 2.66 8.31 2.43 8.14 2.26C7.97 2.09 7.74 2 7.5 2C7.26 2 7.03 2.09 6.86 2.26C6.69 2.43 6.6 2.66 6.6 2.9V3.8H5.7C4.98 3.8 4.3 4.08 3.79 4.59C3.28 5.1 3 5.78 3 6.5V19.1C3 19.82 3.28 20.5 3.79 21.01C4.3 21.52 4.98 21.8 5.7 21.8H18.3C19.02 21.8 19.7 21.52 20.21 21.01C20.72 20.5 21 19.82 21 19.1V6.5C21 5.78 20.72 5.1 20.21 4.59C19.7 4.08 19.02 3.8 18.3 3.8ZM19.2 19.1C19.2 19.34 19.11 19.57 18.94 19.74C18.77 19.91 18.54 20 18.3 20H5.7C5.46 20 5.23 19.91 5.06 19.74C4.89 19.57 4.8 19.34 4.8 19.1V11H19.2V19.1ZM19.2 9.2H4.8V6.5C4.8 6.26 4.89 6.03 5.06 5.86C5.23 5.69 5.46 5.6 5.7 5.6H6.6V6.5C6.6 6.74 6.69 6.97 6.86 7.14C7.03 7.31 7.26 7.4 7.5 7.4C7.74 7.4 7.97 7.31 8.14 7.14C8.31 6.97 8.4 6.74 8.4 6.5V5.6H15.6V6.5C15.6 6.74 15.69 6.97 15.86 7.14C16.03 7.31 16.26 7.4 16.5 7.4C16.74 7.4 16.97 7.31 17.14 7.14C17.31 6.97 17.4 6.74 17.4 6.5V5.6H18.3C18.54 5.6 18.77 5.69 18.94 5.86C19.11 6.03 19.2 6.26 19.2 6.5V9.2ZM7.5 14.6C7.68 14.6 7.85 14.55 8 14.45C8.15 14.35 8.26 14.21 8.33 14.05C8.4 13.89 8.42 13.7 8.38 13.53C8.35 13.36 8.26 13.2 8.13 13.07C8 12.94 7.84 12.86 7.67 12.82C7.5 12.79 7.31 12.8 7.15 12.87C6.99 12.94 6.84 13.05 6.75 13.2C6.65 13.35 6.6 13.52 6.6 13.7C6.6 13.94 6.69 14.17 6.86 14.34C7.03 14.51 7.26 14.6 7.5 14.6ZM7.5 18.2C7.68 18.2 7.85 18.15 8 18.05C8.15 17.95 8.26 17.81 8.33 17.65C8.4 17.49 8.42 17.3 8.38 17.13C8.35 16.96 8.26 16.8 8.13 16.67C8 16.54 7.84 16.46 7.67 16.42C7.5 16.39 7.31 16.4 7.15 16.47C6.99 16.54 6.84 16.65 6.75 16.8C6.65 16.95 6.6 17.12 6.6 17.3C6.6 17.54 6.69 17.77 6.86 17.94C7.03 18.11 7.26 18.2 7.5 18.2Z" fill="currentColor"/>
</g>
<defs>
<clipPath id="clip0_1_2355">
<rect width="18" height="19.8" fill="white" transform="translate(3 2)"/>
</clipPath>
</defs>
</svg>
