<svg width="24" height="24" viewBox="0 0 24 24" fill="none" xmlns="http://www.w3.org/2000/svg">
<path d="M4.90576 4.89984C8.80573 0.999869 15.2059 0.999925 19.106 4.89984C23.0059 8.79978 23.0062 15.2 19.0063 19.1C15.1063 23 8.80576 23 4.90576 19.1C1.00585 15.2 1.00581 8.79981 4.90576 4.89984ZM17.7056 6.39984C14.6056 3.29984 9.50576 3.29984 6.40576 6.39984C3.30578 9.49984 3.30577 14.5997 6.40576 17.6996C9.50577 20.7995 14.6056 20.7996 17.7056 17.6996C20.8055 14.4997 20.8055 9.49985 17.7056 6.39984ZM14.0894 8.48773C14.4799 8.09744 15.1179 8.10119 15.5083 8.49164C15.8987 8.88209 15.9025 9.52005 15.5122 9.91058L13.4224 11.9995L15.5122 14.0893C15.9026 14.4797 15.8986 15.1177 15.5083 15.5082C15.1178 15.8988 14.4799 15.9027 14.0894 15.5121L11.9995 13.4223L9.91064 15.5121C9.52013 15.9027 8.88223 15.8987 8.4917 15.5082C8.10117 15.1177 8.09727 14.4798 8.48779 14.0893L10.5767 11.9995L8.48779 9.91058C8.09727 9.52006 8.10117 8.88216 8.4917 8.49164C8.88225 8.10136 9.5202 8.09729 9.91064 8.48773L11.9995 10.5766L14.0894 8.48773Z" fill="currentColor"/>
</svg>
