<svg width="24" height="24" viewBox="0 0 24 24" fill="none" xmlns="http://www.w3.org/2000/svg">
<path d="M4.90576 4.89981C8.80573 0.999839 15.2059 0.999895 19.106 4.89981C23.0059 8.79975 23.0062 15.2 19.0063 19.1C15.1063 23 8.80576 23 4.90576 19.1C1.00585 15.2 1.00581 8.79978 4.90576 4.89981ZM15.5083 8.49161C15.1179 8.10116 14.4799 8.09741 14.0894 8.4877L11.9995 10.5766L9.91064 8.4877C9.5202 8.09726 8.88225 8.10133 8.4917 8.49161C8.10117 8.88213 8.09727 9.52003 8.48779 9.91055L10.5767 11.9994L8.48779 14.0893C8.09727 14.4798 8.10117 15.1177 8.4917 15.5082C8.88223 15.8987 9.52013 15.9026 9.91064 15.5121L11.9995 13.4223L14.0894 15.5121C14.4799 15.9026 15.1178 15.8987 15.5083 15.5082C15.8986 15.1177 15.9026 14.4797 15.5122 14.0893L13.4224 11.9994L15.5122 9.91055C15.9025 9.52002 15.8987 8.88206 15.5083 8.49161Z" fill="currentColor"/>
</svg>
