<svg width="24" height="24" viewBox="0 0 24 24" fill="none" xmlns="http://www.w3.org/2000/svg">
<path d="M11.1855 4.04004C11.7624 6.07315 13.618 7.56588 15.8281 7.59766C15.8112 7.76297 15.7998 7.93026 15.7998 8.09961C15.7998 10.5481 17.596 12.5761 19.9424 12.9404C19.9379 12.9792 19.9357 13.0181 19.9307 13.0566L19.9297 13.0635C19.4102 16.9785 16.0573 20 12 20C7.58172 20 4 16.4183 4 12C4 7.85664 7.14978 4.44806 11.1855 4.04004Z" stroke="currentColor" stroke-width="2"/>
<path d="M15.8003 16.9C16.2789 16.9 16.6669 16.5119 16.6669 16.0333C16.6669 15.5546 16.2789 15.1666 15.8003 15.1666C15.3216 15.1666 14.9336 15.5546 14.9336 16.0333C14.9336 16.5119 15.3216 16.9 15.8003 16.9Z" fill="currentColor"/>
<path d="M13.6332 12.5667C13.6332 13.2846 13.0512 13.8667 12.3332 13.8667C11.6152 13.8667 11.0332 13.2846 11.0332 12.5667C11.0332 11.8487 11.6152 11.2667 12.3332 11.2667C13.0512 11.2667 13.6332 11.8487 13.6332 12.5667Z" fill="currentColor"/>
<path d="M10.6001 8.23332C10.6001 8.47264 10.4061 8.66665 10.1667 8.66665C9.92741 8.66665 9.7334 8.47264 9.7334 8.23332C9.7334 7.994 9.92741 7.79999 10.1667 7.79999C10.4061 7.79999 10.6001 7.994 10.6001 8.23332Z" fill="currentColor"/>
<path d="M7.13324 12.5667C7.13324 13.0453 6.74522 13.4333 6.26657 13.4333C5.78792 13.4333 5.3999 13.0453 5.3999 12.5667C5.3999 12.088 5.78792 11.7 6.26657 11.7C6.74522 11.7 7.13324 12.088 7.13324 12.5667Z" fill="currentColor"/>
</svg>
