<svg width="24" height="24" viewBox="0 0 24 24" fill="none" xmlns="http://www.w3.org/2000/svg">
<path d="M17.1365 6.71547C16.7428 6.3217 16.1032 6.32546 15.714 6.72384L12 10.5263L8.28596 6.72384C7.89684 6.32546 7.25725 6.3217 6.86347 6.71547L6.71547 6.86347C6.3217 7.25725 6.32546 7.89684 6.72384 8.28596L10.5263 12L6.72384 15.714C6.32546 16.1032 6.3217 16.7428 6.71547 17.1365L6.86347 17.2845C7.25725 17.6783 7.89684 17.6745 8.28596 17.2762L12 13.4737L15.714 17.2762C16.1032 17.6745 16.7428 17.6783 17.1365 17.2845L17.2845 17.1365C17.6783 16.7428 17.6745 16.1032 17.2762 15.714L13.4737 12L17.2762 8.28596C17.6745 7.89684 17.6783 7.25725 17.2845 6.86347L17.1365 6.71547Z" fill="currentColor"/>
</svg>
