<svg width="24" height="24" viewBox="0 0 24 24" fill="none" xmlns="http://www.w3.org/2000/svg">
<path d="M12.0159 15.7792C11.4479 15.7792 11.0257 15.6355 10.7186 15.3766C10.5342 15.2029 10.3548 14.9461 10.187 14.5918C9.93196 14.0537 9.35154 13.6704 8.71531 13.7945C8.02686 13.9289 7.52956 14.6359 7.80843 15.346C8.06991 16.0118 8.41169 16.5529 8.84211 16.9546C9.4204 17.4943 10.2217 17.846 11.2197 18.0309V18.605C11.2197 19.1703 11.678 19.6286 12.2433 19.6286C12.8087 19.6286 13.267 19.1703 13.267 18.605V17.9604C14.1496 17.7008 14.8746 17.2425 15.4296 16.581C16.0375 15.8579 16.3436 15.0177 16.3436 14.0724C16.3436 13.1047 16.0019 12.2703 15.3241 11.5863C15.0757 11.3262 14.7208 11.0696 14.274 10.8135C13.8247 10.5561 13.2617 10.2846 12.5879 9.9988L12.5869 9.99839C11.8143 9.67394 11.3475 9.41068 11.1371 9.21436C10.9409 9.03119 10.8437 8.80798 10.8437 8.52292C10.8437 8.21428 10.9612 7.96273 11.2159 7.74961C11.4731 7.53442 11.804 7.41817 12.2309 7.41817C12.678 7.41817 13.0635 7.57302 13.4011 7.89345C13.803 8.27497 14.4506 8.52584 15.0342 8.22142C15.6321 7.90951 15.9059 7.10909 15.4284 6.53418C15.2096 6.27074 14.9807 6.04913 14.7407 5.87296C14.337 5.57657 13.8424 5.37543 13.267 5.26061V4.72361C13.267 4.15826 12.8087 3.69995 12.2433 3.69995C11.678 3.69995 11.2197 4.15826 11.2197 4.72362V5.28124C10.8414 5.38806 10.4937 5.52604 10.178 5.69639C9.79981 5.90044 9.47603 6.14507 9.21092 6.4323C8.94688 6.71837 8.74342 7.03901 8.6026 7.39327C8.4607 7.75027 8.39117 8.13295 8.39117 8.53835C8.39117 9.39524 8.68665 10.14 9.27312 10.7565C9.65955 11.1858 10.4184 11.6174 11.4855 12.0641C11.9975 12.2827 12.4124 12.4823 12.733 12.6628C13.057 12.8452 13.2881 13.0013 13.4367 13.1304C13.7019 13.3752 13.8414 13.6995 13.8414 14.1342C13.8414 14.6255 13.6725 15.008 13.3376 15.3076C12.9907 15.6183 12.5571 15.7792 12.0159 15.7792Z" fill="currentColor"/>
</svg>
