<svg width="24" height="24" viewBox="0 0 24 24" fill="none" xmlns="http://www.w3.org/2000/svg">
<path fill-rule="evenodd" clip-rule="evenodd" d="M13.5823 2.45123C13.3314 2.01662 12.7681 1.87209 12.3335 2.12301C11.8989 2.37394 11.7424 2.93406 11.9933 3.36867L13.8245 6.55935C12.1645 7.59152 11.0594 9.432 11.0594 11.5306C11.0594 12.3506 11.2281 13.1312 11.5327 13.8396L6.01519 19.3572H1.72362C1.22177 19.3572 0.814941 19.7728 0.814941 20.2746C0.814941 20.7765 1.22177 21.1921 1.72362 21.1921H12.9843C13.4861 21.1921 13.893 20.7765 13.893 20.2746C13.893 19.7728 13.4861 19.3572 12.9843 19.3572H8.61012L12.5432 15.4241C13.6145 16.6244 15.1735 17.3802 16.909 17.3802C17.9084 17.3802 18.8492 17.1296 19.6721 16.6878L21.2481 19.3572C21.499 19.7918 22.0623 19.9363 22.497 19.6854C22.9316 19.4345 23.0881 18.8743 22.8372 18.4397L13.5823 2.45123ZM12.5432 15.4241C12.1265 14.9571 11.7835 14.4228 11.5327 13.8396L11.9933 13.3791C12.3481 13.0242 12.9297 13.0304 13.2846 13.3853C13.6394 13.7401 13.6456 14.3217 13.2907 14.6765L12.5432 15.4241Z" fill="currentColor"/>
</svg>
