<svg width="24" height="24" viewBox="0 0 24 24" fill="none" xmlns="http://www.w3.org/2000/svg">
<path d="M14.0145 5C12.099 5 10.2558 5.80809 8.94693 7.21993C8.37707 6.93384 7.76571 6.7892 7.12829 6.7892C5.19848 6.7892 3.55646 8.13962 3.15665 9.98981H3.14458C3.11599 10.133 3.09778 10.2799 3.08571 10.428L3.07957 10.4796H3.08295C3.07702 10.5656 3.06982 10.6516 3.06982 10.7395C3.06982 12.6607 4.49092 14.25 6.33908 14.5138C6.63716 14.5564 6.88265 14.3082 6.88265 14.0071C6.88265 13.706 6.6361 13.4676 6.34095 13.408C5.09688 13.157 4.15999 12.0581 4.15999 10.7395C4.15999 10.6463 4.17037 10.5556 4.18011 10.4652L4.18879 10.4064C4.37811 9.04322 5.47717 8.01426 6.85385 8.01426C7.60328 8.01426 8.30634 8.30904 8.83321 8.8448L8.90437 8.9168L8.96197 8.83442C10.0087 7.3508 11.7132 6.46499 13.521 6.46499C16.5969 6.46499 19.0989 8.96762 19.0989 12.0433C19.0989 15.0313 16.7587 17.4759 13.7709 17.6087H10.7122V14.3185C10.7122 13.8823 10.3585 13.5286 9.92228 13.5286C9.48613 13.5286 9.13252 13.8821 9.13236 14.3182L9.13074 18.8304H13.9528C13.9732 18.8316 13.9929 18.8333 14.0145 18.8333C14.0276 18.8333 14.0401 18.8304 14.053 18.8304H14.1676V18.8246C17.9099 18.7423 20.9298 15.6784 20.9298 11.9164C20.9298 8.1032 17.8283 5 14.0145 5Z" fill="currentColor"/>
</svg>
