<svg width="24" height="23" viewBox="0 0 24 23" fill="none" xmlns="http://www.w3.org/2000/svg">
<path fill-rule="evenodd" clip-rule="evenodd" d="M12 1.91667C6.5 1.91667 2 6.22917 2 11.5C2 16.7708 6.5 21.0833 12 21.0833C17.5 21.0833 22 16.7708 22 11.5C22 6.22917 17.5 1.91667 12 1.91667ZM12 16.2917C11.4 16.2917 11 15.9083 11 15.3333C11 14.7583 11.4 14.375 12 14.375C12.6 14.375 13 14.7583 13 15.3333C13 15.9083 12.6 16.2917 12 16.2917ZM11 11.5C11 12.0293 11.4477 12.4583 12 12.4583C12.5523 12.4583 13 12.0293 13 11.5V7.66667C13 7.1374 12.5523 6.70834 12 6.70834C11.4477 6.70834 11 7.1374 11 7.66667V11.5Z" fill="currentColor"/>
</svg>
