<svg width="24" height="24" viewBox="0 0 24 24" fill="none" xmlns="http://www.w3.org/2000/svg">
<path d="M20.3281 17.8701C21.1875 17.8701 21.8887 18.538 21.8887 19.3564C21.8885 20.1201 21.2779 20.752 20.498 20.833L20.3281 20.8418H3.56055C2.70129 20.8418 2.00023 20.1747 2 19.3564C2 18.5926 2.61057 17.9599 3.39062 17.8789L3.56055 17.8701H20.3281ZM7.42383 4.05371C7.87417 3.93292 8.3548 4.01964 8.7168 4.2832L8.84668 4.39062L14.8018 9.75293L19.6045 8.5127C20.4995 8.28567 21.4137 8.70845 21.8086 9.48633L21.8799 9.64648L21.9375 9.81641C22.1877 10.738 21.6661 11.6817 20.7568 12.0146L20.582 12.0693L5.51758 15.9707C4.9526 16.1104 4.35732 15.9014 4.00977 15.4521L3.92188 15.3232L2.13672 12.3428C1.83021 11.8549 2.06322 11.225 2.58789 11.0244L2.7041 10.9883L3.02441 10.9043C3.40396 10.8096 3.7997 10.868 4.13574 11.0625L4.27637 11.1543L5.58203 12.1514L9.4834 11.1416L6.51953 6.17871C6.0859 5.44831 6.38996 4.53934 7.12695 4.16699L7.26953 4.10352L7.42383 4.05371Z" fill="currentColor"/>
</svg>
