<svg width="24" height="24" viewBox="0 0 24 24" fill="none" xmlns="http://www.w3.org/2000/svg">
<path d="M20.5093 18.417C21.3301 18.417 22.0005 19.0874 22.0005 19.9082C22.0003 20.6741 21.4164 21.3085 20.6714 21.3896L20.5093 21.3984H3.50049C2.67978 21.3984 2.00948 20.7289 2.00928 19.9082C2.00928 19.1421 2.59324 18.507 3.33838 18.4258L3.50049 18.417H20.5093ZM11.4058 2.01758L11.5767 2.05176C12.0655 2.17809 12.4664 2.52249 12.6577 2.97363L12.7192 3.14746L15.2925 11.5625L20.478 12.957C21.442 13.2209 22.061 14.1246 21.9956 15.0918L21.9731 15.2861L21.9321 15.4805C21.6513 16.5088 20.6357 17.1415 19.5991 16.9727L19.4048 16.9316L3.13428 12.5684C2.52792 12.3983 2.08826 11.874 2.01416 11.251L2.00342 11.0781L2.00049 7.22559C1.98642 6.58728 2.55492 6.10319 3.15771 6.19238L3.2876 6.2207L3.63428 6.31152C4.04218 6.42499 4.37986 6.69528 4.58545 7.06543L4.66553 7.23047L5.32959 8.90234L9.54248 10.0332L9.54346 3.62207C9.54624 2.68021 10.3386 1.96345 11.2358 2.00098L11.4058 2.01758Z" fill="currentColor"/>
</svg>
