<svg width="24" height="24" viewBox="0 0 24 24" fill="none" xmlns="http://www.w3.org/2000/svg">
<path d="M14.3198 14.3138C16.0792 12.5547 18.9659 12.5545 20.6802 14.3588C22.4396 16.1182 22.4396 18.9607 20.6802 20.7201C18.9209 22.4792 16.0792 22.4792 14.3198 20.7201C12.5604 18.9607 12.5604 16.0732 14.3198 14.3138ZM19.103 15.9369C18.9267 15.7605 18.6407 15.7605 18.4644 15.9369L17.521 16.8802L16.5767 15.9369C16.4003 15.7605 16.1144 15.7605 15.938 15.9369C15.7621 16.1133 15.7618 16.3993 15.938 16.5756L16.8823 17.5189L15.938 18.4623C15.7619 18.6386 15.7618 18.9247 15.938 19.101C16.1143 19.2772 16.4003 19.2771 16.5767 19.101L17.521 18.1576L18.4644 19.101C18.6407 19.2771 18.9267 19.2772 19.103 19.101C19.2793 18.9247 19.2792 18.6386 19.103 18.4623L18.1597 17.5189L19.103 16.5756C19.2793 16.3993 19.279 16.1133 19.103 15.9369ZM8.86572 3.08435C9.1264 3.08504 9.37036 3.21301 9.51904 3.42712L13.687 9.43787L18.0298 9.44666C18.6852 9.44804 19.2529 9.98086 19.3003 10.639C19.3474 11.297 18.685 11.8269 18.0298 11.8256H13.687L9.52002 17.8099C9.37063 18.0242 9.12598 18.1517 8.86475 18.1517C8.3044 18.1517 7.91811 17.59 8.11865 17.0668L10.1333 11.809H5.79053L4.68018 13.1439C4.56106 13.2871 4.38399 13.3695 4.19775 13.3695C3.76422 13.3692 3.46173 12.9398 3.60791 12.5316L4.17725 10.9437C4.2551 10.7264 4.25467 10.4884 4.17725 10.2709L3.60596 8.66736C3.46067 8.25963 3.76393 7.83051 4.19678 7.83142C4.38374 7.83191 4.56078 7.91623 4.6792 8.06091L5.79053 9.42126L10.1333 9.43005L8.11865 4.16736C7.91847 3.64427 8.30559 3.08317 8.86572 3.08435Z" fill="currentColor"/>
</svg>
