<svg width="24" height="24" viewBox="0 0 24 24" fill="none" xmlns="http://www.w3.org/2000/svg">
<path d="M16.3574 4.48743C17.2048 3.79468 18.5553 3.75757 19.4072 4.6095C20.3077 5.5102 20.2288 6.99212 19.3955 7.82922L16.667 10.5685L18.0947 17.5529C18.2137 18.1354 18.0454 18.7504 17.6133 19.1847C16.6725 20.1297 15.1602 19.7241 14.6475 18.6212L12.7412 14.5206L10.9854 16.2775L11.1592 17.674C11.2149 18.1233 11.0685 18.5842 10.7373 18.9171L10.5674 19.088C9.78766 19.8712 8.55544 19.5411 8.12109 18.6603L7.22363 16.8409L5.40234 15.9435C4.52275 15.5096 4.1926 14.2794 4.97266 13.4991L5.14453 13.3273L5.27441 13.212C5.59038 12.9624 5.99112 12.8545 6.38379 12.9015L7.77148 13.0675L9.53125 11.3009L5.47363 9.39661C4.37514 8.88095 3.97151 7.37555 4.90918 6.43372L5.08008 6.28137C5.43933 6.00314 5.88753 5.87767 6.33203 5.91418L6.55273 5.94641L13.4688 7.37024L16.1953 4.63489L16.3574 4.48743Z" stroke="currentColor" stroke-width="2"/>
</svg>
