<svg width="24" height="24" viewBox="0 0 24 24" fill="none" xmlns="http://www.w3.org/2000/svg">
<path d="M10 20C10 20.5499 9.54989 20.9999 9 21C8.48996 21 8.06577 20.613 8.00684 20.1182L10 18.375V20ZM17.1699 4C18.7299 4.00008 20 5.27013 20 6.83008V20C20 20.5499 19.5499 20.9999 19 21C18.45 21 18 20.55 18 20V7.41992C18 6.62998 17.3698 6.00004 16.5898 6H11.4199C10.6299 6 10 6.62996 10 7.41992V8.6875L8.0127 6.5752C8.14207 5.1341 9.35599 4 10.8301 4H17.1699Z" fill="currentColor"/>
<path d="M8.79 9.2925L12.31 12.8825C12.71 13.2725 12.71 13.9025 12.31 14.3025L8.78 17.8925C8.39 18.2825 7.76 18.2825 7.37 17.8925C6.98 17.5025 6.98 16.8725 7.37 16.4825L9.21 14.5925H4C3.45 14.5925 3 14.1425 3 13.5925C3 13.0425 3.45 12.5925 4 12.5925H9.22L7.38 10.7025C6.99 10.3125 6.99 9.6825 7.38 9.2925C7.77 8.9025 8.4 8.9025 8.79 9.2925Z" fill="currentColor"/>
</svg>
