<svg width="24" height="24" viewBox="0 0 24 24" fill="none" xmlns="http://www.w3.org/2000/svg">
<path d="M15.5146 3.02081C16.2992 2.92467 17.0961 3.15945 17.7061 3.76202H17.707C18.3654 4.41281 18.6195 5.27097 18.4482 6.13116C18.2954 6.89865 17.8348 7.53077 17.3535 8.00128C16.9744 8.37191 16.5144 8.70919 15.999 9.00031H20C20.5523 9.00031 21 9.44802 21 10.0003V14.0003C20.9998 14.2763 20.776 14.5003 20.5 14.5003H20V21.0003C19.9998 21.5525 19.5522 22.0003 19 22.0003H5C4.44781 22.0003 4.00015 21.5525 4 21.0003V14.5003H3.5C3.22395 14.5003 3.00015 14.2763 3 14.0003V10.0003C3 9.44802 3.44772 9.00031 4 9.00031H8.00098C7.48563 8.70919 7.02563 8.37191 6.64648 8.00128C6.16521 7.53077 5.70462 6.89865 5.55176 6.13116C5.3805 5.27097 5.63463 4.41281 6.29297 3.76202H6.29395C6.90392 3.15945 7.7008 2.92467 8.48535 3.02081C9.22545 3.11161 9.8817 3.48096 10.4043 3.94562C11.0648 4.53298 11.6174 5.35924 12 6.35968C12.3826 5.35924 12.9352 4.53298 13.5957 3.94562C14.1183 3.48096 14.7746 3.11161 15.5146 3.02081ZM5.5 20.5003H9V14.5003H5.5V20.5003ZM10.5 20.5003H14V14.5003H10.5V20.5003ZM15.5 20.5003H18.5V14.5003H15.5V20.5003ZM4.5 13.0003H9V10.5003H4.5V13.0003ZM10.5 13.0003H14V10.5003H10.5V13.0003ZM15.5 13.0003H19.5V10.5003H15.5V13.0003ZM10.585 6.85968C9.78459 4.80649 8.20363 3.98307 7.34766 4.82843C6.39103 5.77394 7.51882 7.20911 9.38184 8.013C9.87764 8.22694 10.4254 8.39688 11 8.50031C10.9176 7.88971 10.7725 7.3408 10.585 6.85968ZM16.6523 4.82843C15.7964 3.98307 14.2154 4.80649 13.415 6.85968C13.2275 7.3408 13.0824 7.88971 13 8.50031C13.5746 8.39688 14.1224 8.22694 14.6182 8.013C16.4812 7.20911 17.609 5.77394 16.6523 4.82843Z" fill="currentColor"/>
</svg>
