<svg width="24" height="24" viewBox="0 0 24 24" fill="none" xmlns="http://www.w3.org/2000/svg">
<path d="M9 14.5002V22.0002H5C4.44781 22.0002 4.00015 21.5524 4 21.0002V14.5002H9ZM14 14.5002V22.0002H10.5V14.5002H14ZM20 14.5002V21.0002C19.9998 21.5524 19.5522 22.0002 19 22.0002H15.5V14.5002H20ZM15.5146 3.02075C16.2992 2.92461 17.0961 3.15939 17.7061 3.76196H17.707C18.3654 4.41274 18.6195 5.27091 18.4482 6.1311C18.2954 6.89859 17.8348 7.53071 17.3535 8.00122C16.9744 8.37185 16.5144 8.70913 15.999 9.00024H20C20.5523 9.00024 21 9.44796 21 10.0002V13.0002H15.5V9.00024H14V13.0002H10.5V9.00024H9V13.0002H3V10.0002C3.00001 9.44796 3.44772 9.00024 4 9.00024H8.00098C7.48563 8.70913 7.02563 8.37185 6.64648 8.00122C6.16521 7.53071 5.70462 6.89859 5.55176 6.1311C5.3805 5.27091 5.63463 4.41274 6.29297 3.76196H6.29395C6.90392 3.15939 7.7008 2.92461 8.48535 3.02075C9.22544 3.11154 9.8817 3.48091 10.4043 3.94556C11.0648 4.53292 11.6174 5.35918 12 6.35962C12.3826 5.35918 12.9352 4.53292 13.5957 3.94556C14.1183 3.48091 14.7746 3.11154 15.5146 3.02075ZM10.585 6.85962C9.78459 4.80644 8.20363 3.98302 7.34766 4.82837C6.39103 5.77388 7.51882 7.20905 9.38184 8.01294C9.87764 8.22688 10.4254 8.39682 11 8.50024C10.9176 7.88966 10.7725 7.34073 10.585 6.85962ZM16.6523 4.82837C15.7964 3.98302 14.2154 4.80644 13.415 6.85962C13.2275 7.34073 13.0824 7.88966 13 8.50024C13.5746 8.39682 14.1224 8.22688 14.6182 8.01294C16.4812 7.20905 17.609 5.77387 16.6523 4.82837Z" fill="currentColor"/>
</svg>
