<svg width="24" height="24" viewBox="0 0 24 24" fill="none" xmlns="http://www.w3.org/2000/svg">
<path d="M21.1675 8.64013C21.1675 8.64013 21.1675 8.64013 21.1675 8.59013C20.4629 6.66635 19.1844 5.00541 17.505 3.83199C15.8256 2.65857 13.8263 2.0293 11.7775 2.0293C9.72877 2.0293 7.72945 2.65857 6.05003 3.83199C4.37061 5.00541 3.09212 6.66635 2.38752 8.59013C2.38752 8.59013 2.38752 8.59013 2.38752 8.64013C1.60064 10.811 1.60064 13.1892 2.38752 15.3601C2.38752 15.3601 2.38752 15.3601 2.38752 15.4101C3.09212 17.3339 4.37061 18.9948 6.05003 20.1683C7.72945 21.3417 9.72877 21.971 11.7775 21.971C13.8263 21.971 15.8256 21.3417 17.505 20.1683C19.1844 18.9948 20.4629 17.3339 21.1675 15.4101C21.1675 15.4101 21.1675 15.4101 21.1675 15.3601C21.9544 13.1892 21.9544 10.811 21.1675 8.64013ZM4.01752 14.0001C3.67075 12.6893 3.67075 11.3109 4.01752 10.0001H5.87752C5.71755 11.3287 5.71755 12.6716 5.87752 14.0001H4.01752ZM4.83752 16.0001H6.23752C6.47224 16.892 6.80773 17.7542 7.23752 18.5701C6.25682 17.9021 5.43702 17.0242 4.83752 16.0001ZM6.23752 8.00013H4.83752C5.42839 6.97921 6.23771 6.10159 7.20752 5.43013C6.78807 6.24737 6.46266 7.10954 6.23752 8.00013ZM10.7575 19.7001C9.52928 18.7988 8.66667 17.4854 8.32752 16.0001H10.7575V19.7001ZM10.7575 14.0001H7.89752C7.71091 12.6733 7.71091 11.3269 7.89752 10.0001H10.7575V14.0001ZM10.7575 8.00013H8.32752C8.66667 6.51489 9.52928 5.20144 10.7575 4.30013V8.00013ZM18.6775 8.00013H17.2775C17.0428 7.10828 16.7073 6.24606 16.2775 5.43013C17.2582 6.0982 18.078 6.97607 18.6775 8.00013ZM12.7575 4.30013C13.9858 5.20144 14.8484 6.51489 15.1875 8.00013H12.7575V4.30013ZM12.7575 19.7001V16.0001H15.1875C14.8484 17.4854 13.9858 18.7988 12.7575 19.7001ZM15.6175 14.0001H12.7575V10.0001H15.6175C15.8041 11.3269 15.8041 12.6733 15.6175 14.0001ZM16.3075 18.5701C16.7373 17.7542 17.0728 16.892 17.3075 16.0001H18.7075C18.108 17.0242 17.2882 17.9021 16.3075 18.5701ZM19.4975 14.0001H17.6375C17.7188 13.3366 17.7589 12.6686 17.7575 12.0001C17.7586 11.3316 17.7185 10.6637 17.6375 10.0001H19.4975C19.8443 11.3109 19.8443 12.6893 19.4975 14.0001Z" fill="currentColor"/>
</svg>
