<svg width="24" height="24" viewBox="0 0 24 24" fill="none" xmlns="http://www.w3.org/2000/svg">
<path d="M11.9995 2C16.4178 2 19.9995 5.58172 19.9995 10H19.9829C20.6922 10.9085 21.1001 12.1153 21.1001 13.3398V13.6602L21.0952 13.8926C21.047 15.0429 20.6423 16.161 19.9712 17.0137L19.9995 17V19C19.9995 20.6569 18.6564 22 16.9995 22H12.9995C12.4474 21.9998 11.9995 21.5522 11.9995 21C11.9995 20.4478 12.4474 20.0002 12.9995 20H16.9995C17.5518 20 17.9995 19.5523 17.9995 19V18.6182C17.9995 18.5404 18.0106 18.4644 18.0278 18.3906C17.6928 18.4936 17.3364 18.5498 16.9614 18.5498H16.5503C15.7219 18.5498 15.0504 17.8781 15.0503 17.0498V9.9502C15.0503 9.12177 15.7219 8.4502 16.5503 8.4502H16.9614C17.2608 8.45021 17.5484 8.48599 17.8228 8.55273C17.1751 5.93835 14.8141 4 11.9995 4C9.18502 4.00018 6.82384 5.93838 6.17627 8.55273C6.45092 8.48585 6.73883 8.4502 7.03857 8.4502H7.74951C8.41199 8.4502 8.94929 8.98703 8.94971 9.64941V17.3496C8.94961 18.0123 8.41219 18.5498 7.74951 18.5498H7.03857C4.5705 18.5498 2.90007 16.1406 2.8999 13.6602V13.3398C2.89999 12.1247 3.30125 10.9266 4.00049 10.0205C4.00032 10.0137 3.99951 10.0069 3.99951 10C3.99951 5.58185 7.58141 2.00021 11.9995 2ZM6.94971 10.4561C5.98641 10.5192 4.90006 11.5957 4.8999 13.3398V13.6602C4.90005 15.4043 5.98641 16.4808 6.94971 16.5439V10.4561ZM17.0503 16.5439C17.9515 16.4848 18.9601 15.5394 19.0864 13.9893L19.1001 13.6602V13.3398L19.0864 13.0107C18.96 11.4607 17.9514 10.5152 17.0503 10.4561V16.5439Z" fill="currentColor"/>
</svg>
