<svg width="24" height="24" viewBox="0 0 24 24" fill="none" xmlns="http://www.w3.org/2000/svg">
<path d="M19.7634 5.41452C19.3236 4.96607 18.8014 4.61034 18.2266 4.36763C17.6519 4.12492 17.0358 4 16.4137 4C15.7915 4 15.1755 4.12492 14.6007 4.36763C14.0259 4.61034 13.5037 4.96607 13.0639 5.41452L12.1511 6.34476L11.2384 5.41452C10.3499 4.50912 9.14501 4.00047 7.88861 4.00047C6.63222 4.00047 5.42728 4.50912 4.53887 5.41452C3.65047 6.31992 3.15137 7.5479 3.15137 8.82833C3.15137 10.1088 3.65047 11.3367 4.53887 12.2421L12.1511 20L19.7634 12.2421C20.2034 11.7939 20.5525 11.2617 20.7906 10.676C21.0288 10.0902 21.1514 9.46237 21.1514 8.82833C21.1514 8.19428 21.0288 7.56645 20.7906 6.9807C20.5525 6.39494 20.2034 5.86275 19.7634 5.41452Z" fill="currentColor" stroke="currentColor" stroke-width="2" stroke-linecap="round" stroke-linejoin="round"/>
</svg>
