<svg width="24" height="24" viewBox="0 0 24 24" fill="none" xmlns="http://www.w3.org/2000/svg">
<path d="M20.3779 2.76951C21.1596 2.76958 21.7734 3.40455 21.7734 4.21287V17.3896C21.7732 18.1978 21.132 18.8329 20.3779 18.833H7.36523C5.358 20.6683 4.2359 21.6979 3.99902 21.9209C3.64377 22.2552 3.31744 22.3818 2.97656 22.3818C2.63565 22.3818 2.38087 22.1249 2.38086 21.5859V4.21287C2.38086 3.43288 2.99479 2.76954 3.77539 2.76951H20.3779ZM4.38086 18.8525C4.83788 18.434 5.38315 17.9356 6.0166 17.3564C6.38508 17.0196 6.86604 16.8331 7.36523 16.833H19.7734V4.76951H4.38086V18.8525ZM12.9287 7.29978L15.5 14.1797H14.0293L13.5449 12.7842H10.8691L10.3857 14.1797H9L11.5615 7.29978H12.9287ZM11.2578 11.6738H13.1553L12.207 8.95994L11.2578 11.6738Z" fill="currentColor"/>
</svg>
