<svg width="24" height="24" viewBox="0 0 24 24" fill="none" xmlns="http://www.w3.org/2000/svg">
<path d="M20.3779 2.76951C21.1596 2.76955 21.7734 3.40453 21.7734 4.21287V17.3896C21.7732 18.1978 21.132 18.8329 20.3779 18.833H7.36621C7.36621 18.833 4.35437 21.5863 3.99902 21.9209C3.64377 22.2552 3.31744 22.3818 2.97656 22.3818C2.63565 22.3818 2.38087 22.1249 2.38086 21.5859V4.21287C2.38086 3.43288 2.99479 2.76954 3.77539 2.76951H20.3779ZM9 14.1797H10.3857L10.8691 12.7842H13.5449L14.0293 14.1797H15.5L12.9287 7.29978H11.5615L9 14.1797ZM13.1553 11.6738H11.2578L12.207 8.95994L13.1553 11.6738Z" fill="currentColor"/>
</svg>
