<svg width="24" height="24" viewBox="0 0 24 24" fill="none" xmlns="http://www.w3.org/2000/svg">
<path fill-rule="evenodd" clip-rule="evenodd" d="M7.73439 3.63033C7.41948 3.94373 7.17371 4.45225 7.17371 5.20533V13.03H6V5.20533C6 4.18363 6.34108 3.36106 6.90645 2.7984C7.46753 2.24002 8.21492 1.97342 8.95692 2.00209C10.4871 2.06121 11.8685 3.33985 11.8685 5.56814H10.6948C10.6948 3.88405 9.7288 3.2065 8.9116 3.17492C8.4799 3.15824 8.05359 3.31266 7.73439 3.63033Z" fill="currentColor"/>
<path d="M3 14.1753C3 13.311 3.70065 12.6104 4.56494 12.6104H18.6494C19.5137 12.6104 20.2144 13.311 20.2144 14.1753V16.5227C20.2144 18.6834 18.4627 20.4351 16.302 20.4351H6.91235C4.75162 20.4351 3 18.6834 3 16.5227V14.1753Z" fill="currentColor"/>
<path fill-rule="evenodd" clip-rule="evenodd" d="M18.6494 13.7841H4.56494C4.34887 13.7841 4.17371 13.9592 4.17371 14.1753V16.5227C4.17371 18.0352 5.39984 19.2614 6.91235 19.2614H16.302C17.8145 19.2614 19.0407 18.0352 19.0407 16.5227V14.1753C19.0407 13.9592 18.8655 13.7841 18.6494 13.7841ZM4.56494 12.6104C3.70065 12.6104 3 13.311 3 14.1753V16.5227C3 18.6834 4.75162 20.4351 6.91235 20.4351H16.302C18.4627 20.4351 20.2144 18.6834 20.2144 16.5227V14.1753C20.2144 13.311 19.5137 12.6104 18.6494 12.6104H4.56494Z" fill="currentColor"/>
<path d="M9.10214 7.24538C8.88015 5.93861 9.75954 4.69932 11.0663 4.47733L11.5099 4.40196C12.8167 4.17998 14.056 5.05936 14.278 6.36612C14.3335 6.69281 14.1136 7.00264 13.7869 7.05813L9.79415 7.73641C9.46746 7.79191 9.15764 7.57207 9.10214 7.24538Z" fill="currentColor"/>
<path fill-rule="evenodd" clip-rule="evenodd" d="M2.66699 20.75C2.66699 20.3358 2.91183 20 3.21385 20H20.6201C20.9222 20 21.167 20.3358 21.167 20.75C21.167 21.1642 20.9222 21.5 20.6201 21.5H3.21385C2.91183 21.5 2.66699 21.1642 2.66699 20.75Z" fill="currentColor"/>
</svg>
