<svg width="24" height="24" viewBox="0 0 24 24" fill="none" xmlns="http://www.w3.org/2000/svg">
<path d="M17.1205 18.7527C17.2338 18.7461 17.3456 18.7184 17.4498 18.6729L19.3951 17.8222C19.9514 17.5791 20.6101 17.1488 20.2351 16.6749C19.6991 15.9975 19.4332 16.287 18.3276 16.0926C18.0833 16.0497 17.8735 15.8999 17.7349 15.6945L14.4991 10.9018C14.4575 10.8402 14.4227 10.7732 14.3943 10.7045C14.0032 9.75843 13.2636 8.80211 11.936 8.85485C11.8764 8.85723 11.8159 8.85709 11.7566 8.85076L9.15168 8.57183C8.76108 8.52994 8.43233 8.26232 8.31193 7.88851L7.94301 6.7425C7.80235 6.30633 7.38265 6.02375 6.92493 6.05697L4.35649 6.24342C3.73056 6.28902 3.29782 6.89419 3.45664 7.50066L3.98679 9.52428C4.37179 11.3396 5.2178 12.3856 7.15301 12.2446L11.4154 12.2451C11.7152 12.2453 11.9986 12.3798 12.187 12.6121L15.3945 16.566C15.4531 16.6383 15.5021 16.7198 15.5385 16.8055C16.3226 18.6561 16.413 18.7934 17.1205 18.7527ZM12.8936 18.363C13.8754 19.252 15.3432 17.493 14.3614 16.604L11.4143 13.6157C11.2631 13.2971 10.9823 13.0639 10.571 13.0638L4.32438 13.064C3.7721 13.064 3.32431 13.5117 3.32431 14.064L3.32395 14.3949C3.32413 14.947 3.77269 15.3949 4.32486 15.3949L9.8765 15.3953L12.8936 18.363Z" fill="currentColor"/>
</svg>
