<svg width="24" height="24" viewBox="0 0 24 24" fill="none" xmlns="http://www.w3.org/2000/svg">
<path d="M17.7573 4.48003C16.166 2.88873 14.0077 1.99475 11.7573 1.99475C9.50682 1.99475 7.34855 2.88873 5.75725 4.48003C4.16595 6.07133 3.27197 8.2296 3.27197 10.48C3.27197 12.7305 4.16595 14.8887 5.75725 16.48L11.0273 21.76C11.1202 21.8538 11.2308 21.9282 11.3527 21.9789C11.4745 22.0297 11.6052 22.0558 11.7373 22.0558C11.8693 22.0558 12 22.0297 12.1218 21.9789C12.2437 21.9282 12.3543 21.8538 12.4473 21.76L17.7573 16.43C19.3419 14.8454 20.2321 12.6961 20.2321 10.455C20.2321 8.21398 19.3419 6.06471 17.7573 4.48003ZM16.3273 15L11.7573 19.59L7.18725 15C6.2844 14.0963 5.66973 12.9453 5.42095 11.6923C5.17217 10.4394 5.30044 9.14078 5.78956 7.96071C6.27867 6.78065 7.10667 5.77208 8.16888 5.06251C9.2311 4.35294 10.4798 3.97421 11.7573 3.97421C13.0347 3.97421 14.2834 4.35294 15.3456 5.06251C16.4078 5.77208 17.2358 6.78065 17.7249 7.96071C18.2141 9.14078 18.3423 10.4394 18.0936 11.6923C17.8448 12.9453 17.2301 14.0963 16.3273 15ZM8.75725 7.41003C7.94997 8.2198 7.49665 9.3166 7.49665 10.46C7.49665 11.6035 7.94997 12.7003 8.75725 13.51C9.35702 14.1108 10.1208 14.5211 10.9529 14.6894C11.785 14.8578 12.6482 14.7766 13.4343 14.4562C14.2204 14.1358 14.8944 13.5903 15.3717 12.8883C15.849 12.1863 16.1084 11.3589 16.1173 10.51C16.1218 9.94324 16.0126 9.38129 15.7962 8.85742C15.5797 8.33355 15.2605 7.85839 14.8573 7.46003C14.4609 7.05461 13.9883 6.73157 13.4667 6.5095C12.945 6.28743 12.3846 6.17071 11.8177 6.16606C11.2507 6.16141 10.6885 6.26893 10.1632 6.48242C9.638 6.69591 9.16017 7.01116 8.75725 7.41003ZM13.4473 12.09C13.0683 12.4748 12.5675 12.7159 12.0304 12.7723C11.4933 12.8286 10.9533 12.6967 10.5028 12.399C10.0522 12.1012 9.71905 11.6563 9.56026 11.1401C9.40147 10.624 9.4269 10.0687 9.63221 9.56919C9.83752 9.06971 10.21 8.65705 10.6858 8.40177C11.1617 8.14649 11.7115 8.06444 12.2412 8.16965C12.7709 8.27486 13.2476 8.56079 13.5898 8.97856C13.932 9.39634 14.1184 9.92 14.1173 10.46C14.1027 11.0773 13.8437 11.6636 13.3973 12.09H13.4473Z" fill="currentColor"/>
</svg>
