<svg width="24" height="24" viewBox="0 0 24 24" fill="none" xmlns="http://www.w3.org/2000/svg">
<path fill-rule="evenodd" clip-rule="evenodd" d="M12.8781 19.7417C12.7669 19.5511 12.7001 19.3314 12.6917 19.0967C12.6911 19.0801 12.6908 19.0634 12.6908 19.0467V17.2099C12.6908 16.9559 12.7513 16.7071 12.8653 16.4833C12.9113 16.3931 12.9659 16.307 13.0289 16.2262L18.9862 8.58364C19.8052 7.53292 19.0565 6 17.7242 6H6.28559C4.95164 6 4.20343 7.53641 5.02597 8.58658L11.009 16.2254C11.0726 16.3066 11.1278 16.3933 11.1742 16.4841C11.2883 16.7076 11.349 16.9561 11.3493 17.2099C11.3493 17.2106 11.3493 17.2113 11.3493 17.212V19.0967C11.3493 19.3362 11.2861 19.5609 11.1755 19.755C10.9897 20.081 10.6703 20.3208 10.2918 20.4C10.2034 20.4185 10.1118 20.4282 10.0179 20.4282H9.47227C9.03823 20.4282 8.68637 20.7801 8.68637 21.2141C8.68637 21.6481 9.03823 22 9.47227 22H14.668C15.102 22 15.4539 21.6481 15.4539 21.2141C15.4539 20.7801 15.102 20.4282 14.668 20.4282H14.0724C13.9767 20.4282 13.8834 20.4185 13.7932 20.4C13.4029 20.3199 13.0727 20.0753 12.8781 19.7417ZM12.0187 14.9197L17.7242 7.6L6.28559 7.6L12.0187 14.9197Z" fill="currentColor"/>
<path d="M15 12.0002C13 12.0002 10.2 10.7999 9 12L12.2 15.6L15 12.0002Z" fill="currentColor"/>
<path fill-rule="evenodd" clip-rule="evenodd" d="M10.3202 12.2812L12.1589 14.3497L13.4761 12.6563C13.4022 12.6446 13.3287 12.6326 13.2559 12.6205C13.0513 12.5864 12.8541 12.5515 12.6616 12.5175C12.2941 12.4526 11.9436 12.3907 11.5918 12.3427C11.0926 12.2746 10.6688 12.2472 10.3202 12.2812ZM13.519 11.0423C14.0749 11.1349 14.5701 11.2002 14.9999 11.2002L16.6357 11.2002L12.2409 16.8503L7.90088 11.9677L8.4342 11.4344C8.9014 10.9671 9.49306 10.7692 10.0658 10.6996C10.6311 10.6308 11.2369 10.6794 11.8081 10.7574C12.1897 10.8094 12.5958 10.8811 12.9828 10.9493C13.1674 10.9819 13.3477 11.0137 13.519 11.0423Z" fill="currentColor"/>
<path d="M12 11.5L17.5 3" stroke="currentColor" stroke-linecap="round"/>
<circle cx="16.5" cy="4.5" r="1" fill="currentColor"/>
</svg>
