<svg width="24" height="24" viewBox="0 0 24 24" fill="none" xmlns="http://www.w3.org/2000/svg">
<path d="M18 4.9998C19.6568 4.9998 20.9999 6.34304 21 7.9998V19.9998C21 21.6567 19.6569 22.9998 18 22.9998H4C3.4 22.9998 3 22.6724 3 22.1814V5.81816C3.00001 5.32727 3.40001 4.9998 4 4.9998H18ZM10 16.9998C9.44778 16.9998 9.00011 17.4476 9 17.9998C9 18.5521 9.44772 18.9998 10 18.9998H14C14.5523 18.9998 15 18.5521 15 17.9998C14.9999 17.4476 14.5522 16.9998 14 16.9998H10ZM12 9.1707C10.3432 9.1707 9.00011 10.5139 9 12.1707C9 13.8276 10.3431 15.1707 12 15.1707C13.6569 15.1707 15 13.8276 15 12.1707C14.9999 10.5139 13.6568 9.1707 12 9.1707ZM13.3066 1.0164C13.6766 0.945207 14.0204 1.22853 14.0205 1.60527V3.7498H3.41113L3.32812 3.74199C3.14096 3.7037 3.00012 3.5381 3 3.33965C3.0001 3.14285 3.13979 2.97366 3.33301 2.93633L13.3066 1.0164Z" fill="currentColor"/>
</svg>
