<svg width="24" height="24" viewBox="0 0 24 24" fill="none" xmlns="http://www.w3.org/2000/svg">
<path d="M2.56885 7.88245C2.8154 7.66957 3.18502 7.68262 3.41553 7.91272L5.12744 9.62463H13.7495L17.4995 13.1412C17.4076 13.3958 17.4206 13.6629 17.4731 13.9352C17.4741 13.9384 17.4761 13.9417 17.4771 13.9449L18.7065 18.3571C18.8839 18.9943 18.4051 19.6255 17.7437 19.6256H17.7124C17.2615 19.6255 16.8662 19.3233 16.7476 18.8883L15.8589 15.6246H7.24561L8.00732 18.3571C8.18473 18.9943 7.7059 19.6255 7.04443 19.6256H7.01318C6.56229 19.6255 6.16695 19.3233 6.04834 18.8883L5.3667 16.3844L3.86572 18.9733C3.58904 19.4502 2.97805 19.6131 2.50049 19.3375C2.02165 19.0609 1.85776 18.4477 2.13525 17.9694L3.72412 15.2291C3.71705 15.1956 3.71338 15.1602 3.71338 15.1246V10.4625L2.46924 8.7135C2.28366 8.45217 2.32647 8.09217 2.56885 7.88245ZM17.2271 5.1676C17.3351 4.94666 17.5367 4.99602 17.6216 5.02698C18.3237 5.28351 18.5478 5.81153 18.3442 6.58069C18.3595 6.59558 20.542 8.73144 21.6353 9.80139C21.8586 10.0199 21.8587 10.2749 21.6665 10.5016C21.4029 10.8123 20.8782 11.4304 20.8667 11.444C20.1644 12.2891 19.3002 11.8936 18.8179 11.444L18.103 12.3356L14.436 8.89612L16.4194 6.67542C16.4338 6.64984 16.98 5.67366 17.2271 5.1676Z" fill="currentColor"/>
</svg>
