<svg width="24" height="24" viewBox="0 0 24 24" fill="none" xmlns="http://www.w3.org/2000/svg">
<path d="M17.9022 17.9763C17.9574 17.9763 18.0022 17.9316 18.0022 17.8763V15.9709C18.0022 15.9156 17.9574 15.8709 17.9022 15.8709H16.0143C15.959 15.8709 15.9143 15.9156 15.9143 15.9709V17.8763C15.9143 17.9316 15.959 17.9763 16.0143 17.9763H17.9022Z" fill="currentColor"/>
<path fill-rule="evenodd" clip-rule="evenodd" d="M20.3341 12.8463C20.7014 12.8463 20.9991 13.1466 20.9991 13.517V20.3294C20.9991 20.6998 20.7014 21 20.3341 21H13.5784C13.2111 21 12.9134 20.6998 12.9134 20.3294V13.517C12.9134 13.1466 13.2111 12.8463 13.5784 12.8463H20.3341ZM19.6691 14.2876C19.6691 14.2323 19.6243 14.1876 19.5691 14.1876H14.3434C14.2882 14.1876 14.2434 14.2323 14.2434 14.2876V19.5588C14.2434 19.614 14.2882 19.6588 14.3434 19.6588H19.5691C19.6243 19.6588 19.6691 19.614 19.6691 19.5588V14.2876Z" fill="currentColor"/>
<path fill-rule="evenodd" clip-rule="evenodd" d="M20.3341 3C20.7014 3 20.9991 3.30024 20.9991 3.67061V10.483C20.9991 10.8534 20.7014 11.1537 20.3341 11.1537H13.5784C13.2111 11.1537 12.9134 10.8534 12.9134 10.483V3.67061C12.9134 3.30024 13.2111 3 13.5784 3H20.3341ZM19.6691 4.44123C19.6691 4.386 19.6243 4.34123 19.5691 4.34123H14.3434C14.2882 4.34123 14.2434 4.386 14.2434 4.44123V9.71243C14.2434 9.76766 14.2882 9.81243 14.3434 9.81243H19.5691C19.6243 9.81243 19.6691 9.76766 19.6691 9.71243V4.44123Z" fill="currentColor"/>
<path fill-rule="evenodd" clip-rule="evenodd" d="M10.4208 3C10.788 3 11.0858 3.30024 11.0858 3.67061V10.483C11.0858 10.8534 10.788 11.1537 10.4208 11.1537H3.66503C3.29774 11.1537 3 10.8534 3 10.483V3.67061C3 3.30024 3.29774 3 3.66503 3H10.4208ZM9.75572 4.44123C9.75572 4.386 9.71095 4.34123 9.65572 4.34123H4.43006C4.37483 4.34123 4.33006 4.386 4.33006 4.44123V9.71243C4.33006 9.76766 4.37483 9.81243 4.43006 9.81243H9.65572C9.71095 9.81243 9.75572 9.76766 9.75572 9.71243V4.44123Z" fill="currentColor"/>
<path d="M7.97569 8.13441C8.03092 8.13441 8.07569 8.08964 8.07569 8.03441V6.12893C8.07569 6.07371 8.03092 6.02893 7.97569 6.02893H6.08774C6.03251 6.02893 5.98774 6.07371 5.98774 6.12893V8.03441C5.98774 8.08964 6.03251 8.13441 6.08774 8.13441H7.97569Z" fill="currentColor"/>
<path d="M8.22777 18.7331C8.283 18.7331 8.32777 18.6884 8.32777 18.6331V16.7934C8.32777 16.7382 8.283 16.6934 8.22777 16.6934H6.40507C6.34984 16.6934 6.30507 16.7382 6.30507 16.7934V18.6331C6.30507 18.6884 6.34984 18.7331 6.40507 18.7331H8.22777Z" fill="currentColor"/>
<path d="M6.19517 20.6648C6.2504 20.6648 6.29517 20.62 6.29517 20.5648V18.7251C6.29517 18.6699 6.2504 18.6251 6.19517 18.6251H4.37247C4.31724 18.6251 4.27247 18.6699 4.27247 18.7251V20.5648C4.27247 20.62 4.31724 20.6648 4.37247 20.6648H6.19517Z" fill="currentColor"/>
<path d="M10.1984 16.6987C10.2537 16.6987 10.2984 16.6539 10.2984 16.5987V14.759C10.2984 14.7038 10.2537 14.659 10.1984 14.659H8.37574C8.32052 14.659 8.27574 14.7038 8.27574 14.759V16.5987C8.27574 16.6539 8.32052 16.6987 8.37574 16.6987H10.1984Z" fill="currentColor"/>
<path d="M6.19517 16.6988C6.2504 16.6988 6.29517 16.654 6.29517 16.5988V14.7591C6.29517 14.7038 6.2504 14.6591 6.19517 14.6591H4.37247C4.31724 14.6591 4.27247 14.7038 4.27247 14.7591V16.5988C4.27247 16.654 4.31724 16.6988 4.37247 16.6988H6.19517Z" fill="currentColor"/>
<path d="M10.1984 20.6646C10.2537 20.6646 10.2984 20.6198 10.2984 20.5646V18.7249C10.2984 18.6697 10.2537 18.6249 10.1984 18.6249H8.37574C8.32052 18.6249 8.27574 18.6697 8.27574 18.7249V20.5646C8.27574 20.6198 8.32052 20.6646 8.37574 20.6646H10.1984Z" fill="currentColor"/>
</svg>
