<svg width="24" height="24" viewBox="0 0 24 24" fill="none" xmlns="http://www.w3.org/2000/svg">
<path d="M3.85938 12.485C4.24978 12.0947 4.88291 12.0948 5.27344 12.485L9.10254 16.3131L7.62598 17.7916L3.79688 13.9625C3.4064 13.572 3.40648 12.939 3.79688 12.5485L3.85938 12.485ZM19.6006 7.08362C19.9911 6.69303 20.6251 6.69307 21.0156 7.08362L21.0781 7.14612C21.4684 7.5365 21.4682 8.16964 21.0781 8.56018L12.5557 17.0846C12.1652 17.475 11.5321 17.475 11.1416 17.0846L8.01953 13.9625C7.62902 13.572 7.62904 12.939 8.01953 12.5485L8.08203 12.486C8.47256 12.0954 9.10557 12.0954 9.49609 12.486L11.8467 14.8356L11.8486 14.8385L19.6006 7.08362ZM15.3789 7.08362C15.7694 6.69319 16.4025 6.69313 16.793 7.08362L16.8555 7.14612C17.2458 7.53662 17.2458 8.1697 16.8555 8.56018L11.8457 13.5699L10.3691 12.0934L15.3789 7.08362Z" fill="currentColor"/>
</svg>
