<svg width="24" height="24" viewBox="0 0 24 24" fill="none" xmlns="http://www.w3.org/2000/svg">
<path d="M20.1549 16.625L20.1449 16.585L7.58488 7.61497H17.1649L15.3249 9.50497C14.9349 9.89497 14.9349 10.525 15.3249 10.915C15.7149 11.305 16.3449 11.305 16.7349 10.915L20.2649 7.32497C20.6549 6.93497 20.6549 6.30497 20.2649 5.91497L16.7349 2.32497C16.3449 1.93497 15.7149 1.93497 15.3249 2.32497C14.9349 2.71497 14.9349 3.34497 15.3249 3.73497L17.1649 5.62497H4.44488C4.41488 5.62497 4.39488 5.63497 4.37488 5.64497C4.31488 5.65497 4.25488 5.66497 4.19488 5.68497C4.11488 5.70497 4.04488 5.72497 3.98488 5.76497C3.95488 5.78497 3.92488 5.80497 3.89488 5.82497C3.81488 5.88497 3.73488 5.94497 3.67488 6.02497C3.65488 6.02497 3.64488 6.02497 3.64488 6.03497C3.63488 6.04497 3.63488 6.06497 3.62488 6.07497C3.56488 6.16497 3.51488 6.26497 3.49488 6.37497C3.48488 6.39497 3.48488 6.41497 3.48488 6.43497C3.47488 6.49497 3.44488 6.55497 3.44488 6.61497C3.44488 6.66497 3.46488 6.70497 3.47488 6.75497C3.47488 6.77497 3.48488 6.79497 3.48488 6.81497C3.50488 6.92497 3.54488 7.02497 3.59488 7.11497C3.60488 7.13497 3.61488 7.14497 3.62488 7.16497C3.68488 7.25497 3.75488 7.33497 3.84488 7.39497C3.85488 7.40497 3.86488 7.41497 3.87488 7.42497L16.4549 16.385H6.83488L8.67488 14.495C9.06488 14.105 9.06488 13.475 8.67488 13.085C8.28488 12.695 7.65488 12.695 7.26488 13.085L3.73488 16.675C3.34488 17.065 3.34488 17.695 3.73488 18.085L7.26488 21.675C7.65488 22.065 8.28488 22.065 8.67488 21.675C9.06488 21.285 9.06488 20.655 8.67488 20.265L6.83488 18.375H19.5449C20.0949 18.375 20.5449 17.925 20.5449 17.375C20.5449 17.075 20.3849 16.805 20.1549 16.625Z" fill="currentColor"/>
</svg>
