<svg width="24" height="24" viewBox="0 0 24 24" fill="none" xmlns="http://www.w3.org/2000/svg">
<path d="M20.2602 5.90496L16.7302 2.31496C16.3402 1.92496 15.7102 1.92496 15.3202 2.31496C14.9302 2.70496 14.9302 3.33496 15.3202 3.72496L17.1602 5.61496H4.4502C3.9002 5.61496 3.4502 6.06496 3.4502 6.61496C3.4502 7.16496 3.9002 7.61496 4.4502 7.61496H17.1602L15.3202 9.50496C14.9302 9.89496 14.9302 10.525 15.3202 10.915C15.7102 11.305 16.3402 11.305 16.7302 10.915L20.2602 7.32496C20.6502 6.92496 20.6502 6.29496 20.2602 5.90496Z" fill="currentColor"/>
<path d="M3.74025 16.675L7.27025 13.085C7.66025 12.695 8.29025 12.695 8.68025 13.085C9.07025 13.475 9.07025 14.105 8.68025 14.495L6.84025 16.385H19.5503C20.1003 16.385 20.5503 16.835 20.5503 17.385C20.5503 17.935 20.1003 18.385 19.5503 18.385H6.84025L8.68025 20.275C9.07025 20.665 9.07025 21.295 8.68025 21.685C8.29025 22.075 7.66025 22.075 7.27025 21.685L3.74025 18.095C3.35025 17.705 3.35025 17.065 3.74025 16.675Z" fill="currentColor"/>
</svg>
