<svg width="24" height="24" viewBox="0 0 24 24" fill="none" xmlns="http://www.w3.org/2000/svg">
<path d="M9.90527 3.7998C11.128 3.7998 12.1191 4.79098 12.1191 6.01367C12.1191 6.73949 11.7682 7.38141 11.2285 7.78516L12.3096 13.7432H16.5107C16.9522 13.7433 17.3536 13.9987 17.541 14.3984L19.292 18.1309C19.5587 18.7001 19.3132 19.3775 18.7441 19.6445C18.1748 19.9115 17.4965 19.667 17.2295 19.0977L15.7871 16.0205H11.3584C10.808 16.0205 10.3366 15.6265 10.2383 15.085L8.95508 8.01074C8.20854 7.65488 7.69141 6.89579 7.69141 6.01367C7.69143 4.791 8.6826 3.79983 9.90527 3.7998ZM6.18359 6.72852C6.69933 6.63696 7.19138 6.98035 7.2832 7.49609L8.71387 15.5361C8.9996 16.8212 9.6588 17.57 10.5977 17.665H14.5264L15.4424 19.5625L10.5068 19.5586C8.5489 19.3697 7.30913 17.9614 6.85352 15.9082L5.41504 7.8291C5.32322 7.31319 5.66768 6.82034 6.18359 6.72852Z" fill="currentColor"/>
</svg>
