<svg width="24" height="24" viewBox="0 0 24 24" fill="none" xmlns="http://www.w3.org/2000/svg">
<path d="M5.82715 2.00659C6.2975 1.95152 6.72704 2.25563 6.8418 2.7019L6.86523 2.8269L7.93066 12.1863C8.20804 13.5225 8.92192 13.9716 10.6113 14.0681L10.8594 14.0798H18.2695C18.7863 14.0798 19.2051 14.4986 19.2051 15.0154C19.2051 15.4891 18.8532 15.8802 18.3965 15.9421L18.2695 15.9509L13.9873 15.95V21.0457H16.1709C16.6876 21.0457 17.1064 21.4645 17.1064 21.9812C17.1063 22.4548 16.7544 22.846 16.2979 22.908L16.1709 22.9167H9.93262C9.41615 22.9165 8.9972 22.4977 8.99707 21.9812C8.99707 21.5076 9.34915 21.1156 9.80566 21.0535L9.93262 21.0457H12.1162V15.95H10.8262C8.25765 15.8585 6.71449 15.0517 6.14453 12.7478L6.08496 12.4851L5.00684 3.04468C4.94664 2.53148 5.31395 2.06683 5.82715 2.00659ZM14.5391 2.95386C16.1958 2.9539 17.5389 4.29714 17.5391 5.95386V7.95386C17.5391 9.61069 16.1959 10.9538 14.5391 10.9539C12.8822 10.9539 11.5391 9.61071 11.5391 7.95386V5.95386C11.5392 4.29711 12.8823 2.95386 14.5391 2.95386ZM14.5391 4.97046C13.9205 4.97046 13.4123 5.44229 13.3545 6.04565L13.3486 6.16089V7.7478C13.3489 8.4049 13.8819 8.93726 14.5391 8.93726C15.1576 8.93722 15.6659 8.46552 15.7236 7.86206L15.7295 7.7478V6.16089C15.7294 5.5037 15.1963 4.9705 14.5391 4.97046Z" fill="currentColor"/>
</svg>
