<svg width="24" height="24" viewBox="0 0 24 24" fill="none" xmlns="http://www.w3.org/2000/svg">
<path d="M7.62891 6.98901C7.62955 6.57509 7.96593 6.23972 8.37988 6.23999L14.9473 6.24487L12.2363 3.5437C11.9435 3.25137 11.9424 2.77639 12.2344 2.48315C12.5267 2.19009 13.0026 2.18913 13.2959 2.4812L17.1055 6.28101C17.4966 6.67122 17.4969 7.30416 17.1064 7.69507L13.2959 11.5105C13.0031 11.8035 12.5274 11.8033 12.2344 11.5105C11.942 11.2177 11.9418 10.7428 12.2344 10.45L14.9375 7.74487L8.37891 7.73999C7.96488 7.73946 7.62863 7.40304 7.62891 6.98901ZM6.75781 17.4851C6.36666 17.0949 6.36629 16.4619 6.75684 16.071L10.5674 12.2556C10.8601 11.9626 11.3359 11.9629 11.6289 12.2556C11.9217 12.5484 11.9216 13.0232 11.6289 13.3162L8.92578 16.0212L15.4844 16.0261C15.8985 16.0265 16.2346 16.363 16.2344 16.7771C16.234 17.1913 15.8976 17.5265 15.4834 17.5261L8.91602 17.5212L11.627 20.2224C11.9202 20.5147 11.921 20.9896 11.6289 21.283C11.3364 21.5762 10.8607 21.5774 10.5674 21.2849L6.75781 17.4851Z" fill="currentColor"/>
</svg>
