<svg width="24" height="24" viewBox="0 0 24 24" fill="none" xmlns="http://www.w3.org/2000/svg">
<path d="M16.8257 7.58014C17.2398 7.58054 17.576 7.91698 17.5757 8.33112L17.5698 14.9005L20.271 12.1885C20.5634 11.8952 21.0392 11.8952 21.3325 12.1876C21.6254 12.4801 21.6258 12.955 21.3335 13.2481L17.5347 17.0577C17.1445 17.4487 16.5105 17.4498 16.1196 17.0596L12.3052 13.2481C12.0124 12.9555 12.0119 12.4806 12.3042 12.1876C12.5969 11.8946 13.0717 11.8941 13.3647 12.1866L16.0698 14.8897L16.0757 8.33014C16.0761 7.91615 16.4118 7.5801 16.8257 7.58014ZM6.32861 6.70905C6.71873 6.31782 7.35266 6.31683 7.74365 6.70709L11.5581 10.5186C11.851 10.8113 11.8516 11.2861 11.5591 11.5792C11.2664 11.8721 10.7915 11.8727 10.4985 11.5801L7.79346 8.87701L7.7876 15.4366C7.7872 15.8507 7.45166 16.1868 7.0376 16.1866C6.62344 16.1862 6.2873 15.8497 6.2876 15.4356L6.29346 8.86627L3.59229 11.5782C3.29983 11.8715 2.82408 11.8716 2.53076 11.5792C2.23787 11.2867 2.23746 10.8118 2.52979 10.5186L6.32861 6.70905Z" fill="currentColor"/>
</svg>
