<svg width="24" height="24" viewBox="0 0 24 24" fill="none" xmlns="http://www.w3.org/2000/svg">
<path d="M6 4.0564C6 4.0374 6 4.01852 6 3.99977C6 3.44752 6.4477 2.99988 6.99995 2.99988L17 2.99988C17.5523 2.99988 18 3.44758 18 3.99986C18 4.01859 18 4.03744 18 4.0564C18 4.07536 18 4.09421 18 4.11293C18 4.66521 17.5523 5.11291 17 5.11291L6.99995 5.11291C6.4477 5.11292 6 4.66527 6 4.11303C6 4.09427 6 4.07539 6 4.0564Z" fill="currentColor"/>
<path d="M11.9999 7.79736C12.0189 7.79736 12.0378 7.79736 12.0565 7.79736C12.6088 7.79737 13.0564 8.24506 13.0564 8.79731V20C13.0564 20.5523 12.6087 21 12.0564 21C12.0377 21 12.0188 21 11.9999 21C11.9809 21 11.9621 21 11.9433 21C11.3911 21 10.9434 20.5523 10.9434 20V8.79731C10.9434 8.24506 11.391 7.79737 11.9432 7.79736C11.962 7.79736 11.9809 7.79736 11.9999 7.79736Z" fill="currentColor"/>
<path d="M6.7 12.3989C6.3134 12.0123 6.3134 11.3855 6.7 10.9989L11.2929 6.40596C11.6834 6.01544 12.3166 6.01544 12.7071 6.40596L17.3 10.9989C17.6866 11.3855 17.6866 12.0123 17.3 12.3989C16.9134 12.7855 16.2866 12.7855 15.9 12.3989L12 8.49885L8.1 12.3989C7.7134 12.7855 7.0866 12.7855 6.7 12.3989Z" fill="currentColor"/>
</svg>
