<svg width="24" height="24" viewBox="0 0 24 24" fill="none" xmlns="http://www.w3.org/2000/svg">
<path d="M19.5923 3.84793C19.8851 3.55508 20.36 3.55516 20.6528 3.84793C20.9452 4.14083 20.9455 4.6158 20.6528 4.90847L18.9585 6.60378C20.6781 7.75173 22.0636 9.30461 22.9165 11.1223C23.0282 11.3592 23.0293 11.6365 22.9185 11.8753C21.1385 15.693 16.8592 18.4911 12.0005 18.5003C10.5276 18.4983 9.11122 18.2299 7.79932 17.762L5.40869 20.1526C5.11588 20.4453 4.64095 20.4452 4.34814 20.1526C4.05557 19.8598 4.0555 19.3848 4.34814 19.0921L19.5923 3.84793ZM14.8735 10.6868C14.9475 10.9467 14.9995 11.2164 14.9995 11.5003C14.9991 13.1539 13.6542 14.5002 11.9995 14.5003C11.7158 14.5002 11.4477 14.4482 11.188 14.3733L9.66748 15.8928C10.3664 16.2677 11.1527 16.5002 11.9995 16.5003C14.7572 16.5002 16.9991 14.2569 16.9995 11.5003C16.9995 10.6526 16.7678 9.86708 16.394 9.16726L14.8735 10.6868ZM12.0005 4.50027C13.4814 4.5003 14.9033 4.75797 16.2183 5.22195L14.3345 7.10574C13.6335 6.73278 12.8474 6.50032 11.9995 6.50027C9.24262 6.50027 7.00066 8.74342 7.00049 11.5003C7.00049 12.3471 7.2311 13.1343 7.60498 13.8343L5.04834 16.3919C3.31034 15.2309 1.91852 13.6683 1.08252 11.8753C0.971595 11.6363 0.972498 11.3593 1.08447 11.1223C2.91455 7.22549 7.14861 4.50027 12.0005 4.50027ZM11.9995 8.50027C12.2825 8.50027 12.553 8.55225 12.813 8.62625L9.12549 12.3137C9.05149 12.0537 8.99951 11.7843 8.99951 11.5003C8.99969 9.84645 10.3447 8.50033 11.9995 8.50027Z" fill="currentColor"/>
</svg>
