<svg width="24" height="24" viewBox="0 0 24 24" fill="none" xmlns="http://www.w3.org/2000/svg">
<path d="M11 11C11 10.4477 11.4477 10 12 10C12.5523 10 13 10.4477 13 11V14C13 14.5523 12.5523 15 12 15C11.4477 15 11 14.5523 11 14V11Z" fill="currentColor"/>
<path d="M13 17C13 17.5523 12.5523 18 12 18C11.4477 18 11 17.5523 11 17C11 16.4477 11.4477 16 12 16C12.5523 16 13 16.4477 13 17Z" fill="currentColor"/>
<path fill-rule="evenodd" clip-rule="evenodd" d="M19.9245 18.1969L12.4625 5.26732C12.2568 4.91089 11.7432 4.9109 11.5375 5.26731L4.07552 18.1969C3.86892 18.5549 4.12796 19 4.538 19H19.462C19.872 19 20.1311 18.5549 19.9245 18.1969ZM14.1947 4.26761C13.2193 2.57747 10.7807 2.57746 9.8053 4.2676L2.3433 17.1972C1.36788 18.8873 2.58716 21 4.538 21H19.462C21.4128 21 22.6321 18.8873 21.6567 17.1972L14.1947 4.26761Z" fill="currentColor"/>
</svg>
