<svg width="24" height="24" viewBox="0 0 24 24" fill="none" xmlns="http://www.w3.org/2000/svg">
<path fill-rule="evenodd" clip-rule="evenodd" d="M4.05208 7.824C4.05208 7.824 3.13221 8.3329 2.58976 8.64608C2.03397 8.96696 2.2015 9.7189 2.24103 9.89634C2.24232 9.90216 2.24348 9.90736 2.24447 9.91191C3.09101 13.7965 5.02595 17.1648 8.16958 20.0771C8.5368 20.4174 9.1491 20.5253 9.35269 20.4163C9.91809 20.1137 10.8336 19.5391 10.8336 19.5391C10.8335 19.539 10.8338 19.5392 10.8336 19.5391L11.3643 19.2155C11.9082 18.8847 12.0085 18.1367 11.5712 17.6742L10.4343 16.4718C10.1168 16.1359 9.61041 16.0615 9.2096 16.2917L8.14532 16.9031C6.87958 15.3659 5.83643 13.5643 5.05827 11.4497L6.07392 10.8604C6.47372 10.6284 6.66242 10.1526 6.53034 9.7097L6.05747 8.12392C5.87557 7.51393 5.1776 7.22688 4.61918 7.53241L4.05542 7.84086C4.05431 7.83524 4.05319 7.82962 4.05208 7.824Z" fill="currentColor"/>
<path d="M13.1616 4.04541C13.7192 3.98461 14.2829 3.98463 14.8413 4.04541L14.8813 4.05127C15.1486 4.08168 15.4121 4.12301 15.6714 4.17822H15.6772C15.9476 4.23582 16.2147 4.30847 16.4771 4.39404L16.4868 4.39795C16.7443 4.48272 16.9987 4.58155 17.2466 4.69189L17.2896 4.7124C17.5239 4.81796 17.7516 4.93585 17.9731 5.06299L18.0581 5.11572C18.2637 5.23735 18.4639 5.3673 18.6567 5.50732L18.769 5.58936C18.9507 5.72378 19.1276 5.86649 19.2964 6.01611L19.4155 6.12354C19.5811 6.27711 19.7393 6.43763 19.8921 6.604L19.9536 6.66553L19.9624 6.68115C22.6829 9.70492 22.6829 14.2951 19.9624 17.3188L19.9536 17.3345L19.8921 17.396C19.7401 17.5632 19.5812 17.7244 19.4155 17.8765L19.2964 17.9829C19.1276 18.1317 18.9506 18.2737 18.769 18.4097L18.6567 18.4927C18.4631 18.6311 18.2637 18.7619 18.0581 18.8843L17.9731 18.937C17.7517 19.0633 17.5248 19.1803 17.2905 19.2866L17.2456 19.3071C16.9985 19.4183 16.7443 19.5171 16.4868 19.6011L16.4771 19.605C16.2147 19.6914 15.9476 19.7632 15.6772 19.8208H15.6714C15.4121 19.8768 15.1486 19.9193 14.8813 19.9497L14.8413 19.9546C14.2829 20.0146 13.7192 20.0146 13.1616 19.9546L13.1216 19.9497C13.0889 19.946 13.0565 19.9401 13.0239 19.936L13.4243 19.6851L13.106 19.4312C13.2081 19.2144 13.2771 18.9843 13.314 18.7495C13.3657 18.7762 13.4172 18.8009 13.4692 18.8218V16.2788C13.1097 16.2915 12.7511 16.3204 12.394 16.3618L11.5249 15.4409C11.5162 15.4317 11.5064 15.4236 11.4976 15.4146C12.1488 15.3032 12.8071 15.2358 13.4683 15.2153V12.5337H10.8149C10.8389 13.4047 10.9513 14.2708 11.1509 15.1187C10.7993 14.8699 10.3947 14.7195 9.97705 14.6743C9.84625 13.968 9.76942 13.2524 9.74951 12.5337H7.14111C7.07162 12.388 7.00251 12.2409 6.93604 12.0913C7.19608 11.9222 7.41467 11.7083 7.59033 11.4673H9.74951C9.77911 10.3976 9.93276 9.3348 10.2056 8.30029C9.64799 8.14428 9.1041 7.93883 8.58252 7.68604C8.29468 8.04696 8.04603 8.43467 7.8374 8.84131L7.49561 7.69482C7.4728 7.6184 7.44558 7.54445 7.4165 7.47217C7.6061 7.19907 7.81381 6.93416 8.0415 6.68115L8.04932 6.66553L8.11182 6.604C8.26383 6.43679 8.42276 6.27635 8.58838 6.12354L8.70654 6.01611C8.87617 5.86809 9.05323 5.72538 9.23486 5.58936L9.34619 5.50732C9.53981 5.36811 9.73938 5.23814 9.9458 5.11572L10.0298 5.06299C10.2513 4.93666 10.4791 4.81893 10.7134 4.71338L10.7563 4.69189C11.0035 4.5815 11.2585 4.48275 11.5161 4.39795L11.5259 4.39404C11.7882 4.30848 12.0554 4.23581 12.3257 4.17822H12.3325C12.5907 4.12227 12.8546 4.08086 13.1216 4.05127L13.1616 4.04541ZM6.31006 14.1958C6.854 15.1789 7.46768 16.079 8.146 16.9028L9.21045 16.2915C9.6112 16.0615 10.1176 16.1364 10.4351 16.4722L11.5718 17.6743C11.7728 17.887 11.8604 18.1602 11.8433 18.4253C11.8231 18.7366 11.6584 19.0367 11.3647 19.2153L11.0278 19.4204C10.9371 19.3837 10.8457 19.3472 10.7563 19.3071L10.7124 19.2866C10.479 19.1811 10.2512 19.0633 10.0298 18.937L9.9458 18.8843C9.73936 18.7619 9.53903 18.6319 9.34619 18.4927L9.23486 18.4097C9.05326 18.2753 8.87614 18.1333 8.70654 17.9829L8.58838 17.8765C8.4228 17.7229 8.2638 17.5624 8.11182 17.396L8.04932 17.3345L8.0415 17.3188C7.20973 16.3946 6.63336 15.3232 6.31006 14.1958ZM14.5356 18.8218C15.2396 18.5392 15.9217 17.7151 16.4233 16.48C15.7994 16.3688 15.1691 16.3012 14.5356 16.2788V18.8218ZM10.5396 16.7173C10.1356 16.8269 9.73766 16.9643 9.35205 17.1274L9.38818 17.1616C9.52408 17.2823 9.66271 17.3968 9.8042 17.5063L9.88916 17.5698C10.034 17.6762 10.1824 17.7783 10.3345 17.8735L10.4233 17.9263C10.5754 18.0191 10.7311 18.1078 10.8911 18.187L10.9897 18.2358C11.1393 18.3086 11.2914 18.3764 11.4458 18.438C11.0713 17.9059 10.7676 17.327 10.5396 16.7173ZM17.4653 16.7173C17.2381 17.3269 16.9335 17.9059 16.5591 18.438C16.7126 18.3764 16.8656 18.3094 17.0151 18.2358L17.1138 18.188C17.273 18.108 17.4297 18.0193 17.5825 17.9272L17.6714 17.8735C17.8226 17.7776 17.9708 17.6762 18.1147 17.5698L18.1997 17.5073C18.3421 17.3977 18.4807 17.2832 18.6167 17.1616L18.6528 17.1274C18.2672 16.9642 17.8702 16.8269 17.4653 16.7173ZM18.2554 12.5337C18.2258 13.6026 18.0721 14.6652 17.7993 15.6997C18.3568 15.8557 18.9008 16.061 19.4224 16.313C20.2864 15.2313 20.8038 13.9146 20.9087 12.5337H18.2554ZM14.5356 12.5337V15.2153C15.2845 15.2386 16.0311 15.3195 16.7671 15.4595C17.0199 14.5034 17.1618 13.5217 17.189 12.5337H14.5356ZM11.2358 8.54053C10.983 9.49591 10.8421 10.4791 10.8149 11.4673H13.4683V8.78564C12.7187 8.76162 11.9718 8.67973 11.2358 8.54053ZM16.7671 8.54053C16.0311 8.67973 15.2845 8.76163 14.5356 8.78564V11.4673H17.189C17.1618 10.4791 17.0199 9.49591 16.7671 8.54053ZM19.4224 7.68604C18.9008 7.93883 18.3569 8.14427 17.7993 8.30029C18.0721 9.3348 18.2258 10.3976 18.2554 11.4673H20.9087C20.8039 10.0854 20.2865 8.76864 19.4224 7.68604ZM6.53076 9.70947C6.6618 10.1489 6.47678 10.62 6.0835 10.854C6.15499 10.3611 6.27372 9.87408 6.43799 9.39893L6.53076 9.70947ZM13.4692 5.17725C12.7643 5.4597 12.0823 6.28459 11.5806 7.52002C12.2045 7.63119 12.8357 7.69781 13.4692 7.72021V5.17725ZM14.5356 7.72021C15.1691 7.6978 15.7995 7.63118 16.4233 7.52002C15.9217 6.2847 15.2397 5.45977 14.5356 5.17725V7.72021ZM11.4468 5.56299C11.2924 5.62459 11.1395 5.69252 10.9907 5.76611L10.8911 5.81299C10.732 5.89293 10.5762 5.981 10.4243 6.07373L10.3335 6.12646C10.1815 6.22168 10.034 6.32376 9.88916 6.43018L9.8042 6.49268C9.66259 6.60229 9.52339 6.71757 9.38818 6.83838L9.35205 6.87354C9.7385 7.03675 10.1355 7.17408 10.5396 7.28369C10.7676 6.67402 11.0715 6.09505 11.4468 5.56299ZM16.5591 5.56104C16.9342 6.09299 17.2381 6.67142 17.4653 7.28174C17.8702 7.17132 18.2672 7.03479 18.6528 6.87158L18.6157 6.8374C18.4797 6.71658 18.3404 6.6023 18.1987 6.49268L18.1138 6.43018C17.9706 6.32224 17.8225 6.22064 17.6714 6.12549L17.5806 6.07275C17.4286 5.98076 17.2728 5.89299 17.1128 5.81299L17.0151 5.76318C16.8656 5.69042 16.7134 5.62261 16.5591 5.56104Z" fill="currentColor"/>
</svg>
