<svg width="24" height="24" viewBox="0 0 24 24" fill="none" xmlns="http://www.w3.org/2000/svg">
<path d="M11.7573 6C12.1528 6 12.5395 5.8827 12.8684 5.66294C13.1973 5.44318 13.4537 5.13082 13.605 4.76537C13.7564 4.39992 13.796 3.99778 13.7189 3.60982C13.6417 3.22186 13.4512 2.86549 13.1715 2.58579C12.8918 2.30608 12.5354 2.1156 12.1475 2.03843C11.7595 1.96126 11.3574 2.00087 10.9919 2.15224C10.6265 2.30362 10.3141 2.55996 10.0943 2.88886C9.87458 3.21776 9.75729 3.60444 9.75729 4C9.75729 4.53043 9.968 5.03914 10.3431 5.41421C10.7181 5.78929 11.2269 6 11.7573 6ZM19.2573 20H18.2573V15C18.2573 14.7348 18.1519 14.4804 17.9644 14.2929C17.7769 14.1054 17.5225 14 17.2573 14H12.2573V12H17.2573C17.5225 12 17.7769 11.8946 17.9644 11.7071C18.1519 11.5196 18.2573 11.2652 18.2573 11C18.2573 10.7348 18.1519 10.4804 17.9644 10.2929C17.7769 10.1054 17.5225 10 17.2573 10H12.2573V8C12.2573 7.73478 12.1519 7.48043 11.9644 7.29289C11.7769 7.10536 11.5225 7 11.2573 7C10.9921 7 10.7377 7.10536 10.5502 7.29289C10.3626 7.48043 10.2573 7.73478 10.2573 8V15C10.2573 15.2652 10.3626 15.5196 10.5502 15.7071C10.7377 15.8946 10.9921 16 11.2573 16H16.2573V21C16.2573 21.2652 16.3626 21.5196 16.5502 21.7071C16.7377 21.8946 16.9921 22 17.2573 22H19.2573C19.5225 22 19.7769 21.8946 19.9644 21.7071C20.1519 21.5196 20.2573 21.2652 20.2573 21C20.2573 20.7348 20.1519 20.4804 19.9644 20.2929C19.7769 20.1054 19.5225 20 19.2573 20ZM12.4573 18.4C11.9536 19.0716 11.2513 19.5677 10.45 19.8181C9.64861 20.0684 8.78882 20.0602 7.99238 19.7947C7.19593 19.5293 6.5032 19.0199 6.01232 18.3388C5.52144 17.6578 5.25729 16.8395 5.25729 16C5.25846 15.2227 5.48608 14.4626 5.9123 13.8126C6.33853 13.1626 6.9449 12.6509 7.65729 12.34C7.90129 12.2339 8.09315 12.0352 8.19067 11.7877C8.28819 11.5401 8.28337 11.264 8.17729 11.02C8.0712 10.776 7.87253 10.5841 7.62498 10.4866C7.37743 10.3891 7.10129 10.3939 6.85729 10.5C6.01579 10.8674 5.26985 11.4231 4.67692 12.1243C4.08399 12.8254 3.65989 13.6532 3.43729 14.5441C3.21468 15.4349 3.19951 16.365 3.39294 17.2626C3.58637 18.1602 3.98323 19.0014 4.55298 19.7215C5.12272 20.4416 5.85014 21.0214 6.67921 21.4161C7.50827 21.8108 8.41687 22.0099 9.33502 21.9982C10.2532 21.9864 11.1564 21.7641 11.9751 21.3483C12.7938 20.9326 13.5061 20.3344 14.0573 19.6C14.2164 19.3878 14.2847 19.1211 14.2472 18.8586C14.2097 18.596 14.0695 18.3591 13.8573 18.2C13.6451 18.0409 13.3784 17.9725 13.1159 18.01C12.8533 18.0476 12.6164 18.1878 12.4573 18.4Z" fill="currentColor"/>
</svg>
